<svg xmlns="http://www.w3.org/2000/svg" xmlns:xlink="http://www.w3.org/1999/xlink" width="1327" zoomAndPan="magnify" viewBox="0 0 995.25 599.999999" height="800" preserveAspectRatio="xMidYMid meet" version="1.0"><defs><g/><clipPath id="1371ba9d5e"><path d="M 0 0.226562 L 994.5 0.226562 L 994.5 599.773438 L 0 599.773438 Z M 0 0.226562 " clip-rule="nonzero"/></clipPath><clipPath id="47cdf7d222"><path d="M 157.203125 0.226562 L 836 0.226562 L 836 599.773438 L 157.203125 599.773438 Z M 157.203125 0.226562 " clip-rule="nonzero"/></clipPath><clipPath id="6e9172a56d"><rect x="0" width="843" y="0" height="311"/></clipPath></defs><g clip-path="url(#1371ba9d5e)"><path fill="#ffffff" d="M 0 0.226562 L 994.5 0.226562 L 994.5 599.773438 L 0 599.773438 Z M 0 0.226562 " fill-opacity="1" fill-rule="nonzero"/></g><path fill="#ffffff" d="M 835.195312 408.570312 L 834.714844 420.101562 L 830.875 436.117188 L 828.152344 444.441406 L 817.746094 459.335938 L 804.457031 471.34375 L 795.171875 477.269531 L 782.203125 481.113281 L 760.589844 483.515625 L 750.023438 485.917969 L 750.34375 502.089844 L 753.707031 523.070312 L 752.265625 538.28125 L 748.261719 553.496094 L 738.015625 568.707031 L 729.53125 578.15625 L 714.804688 587.765625 L 700.714844 593.367188 L 687.90625 596.25 L 671.738281 596.25 L 657.007812 592.886719 L 646.601562 587.765625 L 638.757812 582.800781 L 630.273438 574.792969 L 622.746094 565.34375 L 617.144531 554.9375 L 610.101562 534.277344 L 602.894531 507.855469 L 602.09375 496.488281 L 601.453125 470.703125 L 604.496094 458.214844 L 604.496094 447.964844 L 590.566406 469.101562 L 577.28125 484.796875 L 561.910156 498.40625 L 555.1875 503.691406 L 544.140625 513.941406 L 532.773438 519.226562 L 517.882812 526.433594 L 502.515625 530.273438 L 485.703125 530.273438 L 473.378906 526.433594 L 459.929688 519.867188 L 448.402344 511.378906 L 438.957031 500.488281 C 438.957031 500.488281 435.273438 491.683594 434.953125 491.363281 L 431.113281 485.757812 L 427.75 474.546875 L 425.988281 465.261719 L 425.988281 452.128906 L 427.75 439.316406 L 433.351562 425.707031 L 441.039062 411.773438 L 450.484375 403.769531 L 459.769531 399.125 L 465.691406 393.679688 L 471.617188 388.234375 L 468.253906 381.828125 L 458.648438 372.542969 L 451.125 365.496094 L 440.238281 351.5625 L 437.835938 348.359375 L 435.273438 332.027344 L 433.832031 323.058594 L 436.875 302.402344 L 438.15625 294.074219 L 409.980469 269.894531 L 392.6875 246.835938 L 396.53125 263.167969 L 397.492188 271.976562 L 401.171875 301.28125 L 401.492188 322.898438 L 399.09375 340.355469 L 394.609375 357.488281 L 390.605469 368.378906 L 385.804688 377.183594 L 375.878906 389.195312 L 363.871094 397.523438 L 340.976562 406.96875 L 320.804688 406.96875 L 294.390625 399.765625 L 278.699219 390.796875 L 267.492188 380.066406 L 261.410156 367.257812 L 257.246094 348.039062 L 256.125 338.914062 L 258.046875 318.253906 L 259.328125 306.40625 L 253.722656 305.605469 L 242.355469 307.367188 L 229.550781 307.367188 L 207.9375 305.285156 L 196.25 299.519531 L 177.839844 284.945312 L 170.152344 273.097656 L 162.628906 256.601562 L 159.425781 237.707031 L 160.546875 219.613281 L 166.3125 202.636719 L 174.316406 190.949219 L 186.003906 179.257812 L 203.613281 170.609375 L 246.839844 161.964844 L 274.375 160.523438 L 283.664062 160.363281 L 260.769531 138.261719 L 236.273438 104.3125 L 228.109375 74.527344 L 229.070312 61.238281 L 232.75 44.582031 L 238.195312 36.898438 L 255.003906 18 L 267.972656 9.515625 L 279.660156 4.871094 L 293.75 1.828125 L 307.515625 1.828125 L 325.609375 5.511719 L 338.09375 11.914062 L 351.222656 22.484375 L 364.671875 41.539062 L 372.675781 62.359375 L 381.480469 93.265625 L 383.082031 106.394531 L 387.726562 99.03125 L 401.011719 79.972656 L 413.660156 65.5625 L 428.230469 51.949219 L 449.84375 39.300781 L 463.929688 35.617188 L 482.183594 34.496094 L 494.832031 39.140625 L 502.675781 41.539062 L 513.082031 47.304688 L 525.570312 58.195312 L 528.289062 62.679688 L 537.894531 76.769531 L 543.339844 93.425781 L 546.0625 108.636719 L 544.140625 117.285156 L 539.816406 135.378906 L 532.773438 147.390625 L 515.964844 163.242188 L 506.996094 171.570312 L 516.125 174.773438 L 530.371094 179.097656 L 536.617188 180.378906 L 535.015625 182.300781 L 539.496094 185.34375 L 554.386719 197.03125 L 568.15625 216.410156 L 570.875 238.347656 L 568.15625 263.488281 L 566.394531 273.898438 L 575.679688 286.386719 L 590.40625 303.363281 L 596.332031 305.125 L 596.332031 292.472656 L 594.890625 285.265625 L 600.175781 262.847656 L 605.9375 240.269531 L 614.101562 218.972656 L 634.273438 203.117188 L 641.640625 194.789062 L 654.765625 193.351562 L 669.175781 190.148438 L 691.589844 193.351562 L 700.394531 196.230469 L 713.523438 203.597656 L 722.648438 209.683594 L 729.691406 217.53125 L 734.65625 224.894531 L 740.578125 235.625 L 742.660156 242.992188 L 743.941406 249.558594 L 744.261719 258.84375 L 744.582031 270.535156 L 740.417969 283.027344 L 734.015625 299.199219 L 726.171875 316.972656 L 719.925781 328.183594 L 718.804688 341.957031 L 730.652344 340.355469 L 740.417969 340.195312 L 769.875 340.195312 L 780.761719 341.316406 L 797.574219 349 L 815.664062 359.730469 L 823.507812 370.78125 L 829.753906 383.429688 L 834.074219 398.644531 Z M 835.195312 408.570312 " fill-opacity="1" fill-rule="nonzero"/><path fill="#e4d3c7" d="M 395.570312 189.507812 L 397.171875 195.589844 L 397.171875 204.71875 L 394.128906 211.285156 L 386.925781 218.972656 L 376.839844 224.734375 L 371.234375 226.65625 L 363.550781 226.015625 L 355.066406 224.734375 L 350.421875 220.574219 L 344.179688 215.449219 L 339.855469 208.722656 L 334.894531 195.269531 L 339.375 178.296875 L 340.496094 178.457031 L 349.140625 172.53125 L 357.628906 166.925781 L 376.359375 166.925781 L 388.046875 174.292969 L 394.609375 184.0625 Z M 656.527344 388.875 L 655.246094 381.667969 L 652.6875 376.382812 L 645.800781 369.179688 L 629.3125 362.132812 L 615.703125 364.535156 L 606.097656 369.660156 L 600.972656 375.425781 L 597.933594 381.507812 L 595.691406 387.914062 L 595.371094 395.441406 L 597.132812 403.449219 L 600.496094 412.09375 L 608.5 419.300781 L 617.945312 422.34375 L 624.828125 424.105469 L 631.875 424.105469 L 638.597656 421.542969 L 644.359375 417.859375 L 646.28125 416.257812 L 649.324219 412.734375 L 652.367188 409.050781 L 653.804688 406.011719 L 655.566406 401.207031 L 656.6875 395.441406 Z M 656.527344 388.875 " fill-opacity="1" fill-rule="nonzero"/><g clip-path="url(#47cdf7d222)"><path fill="#3e3238" d="M 835.355469 401.527344 C 834.554688 392.71875 832.15625 383.910156 828.3125 375.90625 C 826.390625 371.902344 823.988281 367.898438 821.269531 364.375 C 815.664062 357.007812 808.621094 351.082031 800.457031 346.917969 C 796.453125 344.839844 792.128906 343.078125 787.808594 341.796875 C 783.484375 340.515625 779.003906 339.714844 774.519531 339.074219 C 770.195312 338.433594 765.714844 338.113281 761.230469 337.953125 C 752.425781 337.472656 743.460938 337.792969 734.816406 338.914062 C 731.132812 339.394531 727.449219 339.875 723.769531 340.675781 C 721.527344 334.429688 722.328125 327.542969 725.851562 321.777344 C 731.132812 313.292969 735.457031 304.484375 738.976562 295.195312 C 739.777344 292.792969 740.738281 290.390625 741.539062 287.988281 C 741.859375 286.707031 742.339844 285.585938 742.660156 284.308594 L 743.621094 280.464844 C 744.902344 275.339844 745.703125 270.214844 745.863281 265.089844 C 746.183594 259.964844 745.863281 254.679688 744.902344 249.558594 C 743.140625 239.308594 739.136719 229.699219 733.054688 221.375 C 730.011719 217.210938 726.652344 213.367188 722.808594 209.84375 C 715.125 202.796875 706.320312 197.351562 696.710938 193.671875 C 691.910156 191.75 686.785156 190.46875 681.664062 189.507812 L 677.820312 188.867188 C 676.539062 188.707031 675.257812 188.546875 673.980469 188.386719 C 671.417969 188.226562 668.695312 188.066406 666.132812 188.226562 C 660.851562 188.386719 655.566406 189.1875 650.445312 190.46875 C 645.320312 191.910156 640.359375 193.828125 635.714844 196.390625 C 631.074219 198.953125 626.589844 201.996094 622.746094 205.679688 C 618.90625 209.363281 615.382812 213.367188 612.339844 217.691406 C 609.300781 222.015625 606.738281 226.65625 604.65625 231.621094 C 604.175781 232.902344 603.695312 234.023438 603.214844 235.304688 L 601.933594 238.988281 L 599.535156 246.355469 C 596.492188 256.28125 594.410156 266.371094 593.289062 276.621094 L 592.808594 280.464844 C 592.648438 281.746094 592.648438 283.027344 592.488281 284.308594 L 592.328125 288.148438 L 592.328125 295.835938 C 592.328125 296.476562 592.328125 297.117188 592.328125 297.757812 L 592.328125 299.679688 L 592.488281 303.042969 L 592.007812 302.082031 C 591.527344 301.121094 591.207031 300.320312 590.570312 299.359375 C 590.410156 298.878906 590.089844 298.558594 589.769531 298.078125 C 589.449219 297.597656 589.289062 297.277344 588.96875 296.796875 C 586.886719 293.433594 584.484375 290.390625 581.761719 287.507812 C 579.042969 284.628906 576 281.90625 572.796875 279.664062 L 571.515625 278.863281 C 568.316406 276.621094 569.753906 268.292969 569.753906 268.292969 C 570.074219 267.332031 570.394531 266.53125 570.714844 265.570312 C 571.996094 261.726562 572.957031 257.722656 573.597656 253.722656 C 575.039062 245.554688 575.039062 237.386719 573.597656 229.21875 C 571.515625 217.050781 566.074219 205.519531 557.75 196.390625 C 555.027344 193.351562 551.984375 190.628906 548.78125 188.066406 C 542.378906 183.261719 535.175781 179.417969 527.488281 176.855469 C 523.808594 175.574219 519.964844 174.453125 516.125 173.492188 C 514.523438 173.011719 512.761719 172.691406 511.160156 172.371094 C 514.84375 169.808594 518.363281 166.925781 521.886719 164.042969 L 523.167969 162.925781 L 524.449219 161.804688 L 527.011719 159.242188 C 527.808594 158.441406 528.609375 157.480469 529.25 156.679688 C 529.890625 155.878906 530.691406 154.917969 531.492188 153.957031 C 534.214844 150.273438 536.617188 146.269531 538.695312 142.105469 L 539.496094 140.503906 C 539.816406 140.023438 539.976562 139.542969 540.296875 138.902344 C 540.777344 137.78125 541.257812 136.820312 541.578125 135.699219 L 542.859375 132.5 L 543.980469 129.296875 C 545.261719 124.972656 546.222656 120.488281 546.542969 116.003906 C 547.34375 107.035156 546.222656 97.910156 543.5 89.261719 C 540.777344 80.773438 536.777344 72.765625 531.492188 65.5625 C 526.210938 58.355469 519.964844 52.109375 512.921875 46.824219 C 505.71875 41.539062 497.710938 37.378906 489.226562 34.816406 C 484.90625 33.535156 480.421875 32.574219 475.9375 32.253906 C 466.8125 31.453125 457.6875 32.734375 449.042969 35.777344 C 444.71875 37.378906 440.71875 39.300781 436.714844 41.699219 C 432.871094 44.101562 429.191406 46.824219 425.828125 49.707031 C 422.464844 52.589844 419.105469 55.632812 416.0625 58.675781 C 409.820312 64.921875 404.054688 71.648438 398.933594 78.851562 C 393.808594 85.898438 389.488281 93.425781 385.644531 101.273438 C 384.683594 92.464844 382.921875 83.65625 380.519531 75.007812 C 377.800781 65.082031 373.957031 55.472656 369.3125 46.183594 C 368.035156 43.941406 366.914062 41.699219 365.632812 39.460938 C 364.992188 38.339844 364.351562 37.21875 363.710938 36.097656 L 361.628906 32.894531 C 358.746094 28.570312 355.386719 24.566406 351.703125 20.882812 C 348.019531 17.199219 344.019531 13.996094 339.535156 11.113281 C 330.890625 5.511719 320.964844 1.988281 310.71875 0.867188 C 305.59375 0.226562 300.472656 0.226562 295.347656 0.707031 C 285.101562 1.667969 275.015625 4.550781 265.890625 9.355469 C 261.25 11.753906 256.925781 14.476562 252.761719 17.679688 C 248.601562 20.882812 244.757812 24.40625 241.398438 28.410156 C 237.875 32.414062 234.992188 36.738281 232.429688 41.378906 C 229.871094 46.023438 227.949219 50.988281 226.507812 56.113281 C 225.066406 61.238281 224.265625 66.683594 224.105469 71.964844 C 223.945312 77.410156 224.265625 82.855469 225.386719 88.140625 C 226.347656 93.425781 227.949219 98.710938 230.03125 103.671875 C 230.511719 104.953125 231.152344 106.234375 231.632812 107.355469 C 232.109375 108.476562 232.75 109.757812 233.390625 110.878906 C 234.671875 113.121094 235.792969 115.523438 237.074219 117.765625 C 242.199219 126.894531 248.28125 135.539062 255.324219 143.386719 C 255.324219 143.386719 262.210938 157.160156 252.605469 159.082031 L 250.683594 159.082031 L 247.320312 159.242188 C 245.078125 159.402344 242.835938 159.402344 240.597656 159.722656 C 238.355469 160.042969 236.113281 160.203125 233.871094 160.363281 C 231.632812 160.523438 229.390625 161.003906 227.148438 161.324219 C 222.664062 162.125 218.183594 163.082031 213.859375 164.203125 C 212.738281 164.523438 211.617188 164.683594 210.5 165.164062 C 209.378906 165.644531 208.257812 165.804688 207.136719 166.125 C 206.015625 166.445312 204.894531 166.765625 203.773438 167.246094 L 200.570312 168.527344 C 196.25 170.289062 192.085938 172.371094 188.085938 174.933594 C 184.082031 177.496094 180.398438 180.378906 177.039062 183.742188 C 173.675781 187.105469 170.792969 190.789062 168.394531 194.789062 C 165.992188 198.792969 163.910156 202.957031 162.308594 207.28125 C 159.265625 215.929688 157.828125 225.054688 157.984375 234.183594 C 158.144531 243.3125 159.746094 252.28125 162.628906 260.925781 C 162.949219 262.046875 163.429688 263.007812 163.75 264.128906 C 164.070312 265.25 164.550781 266.210938 165.03125 267.332031 C 165.992188 269.414062 166.953125 271.496094 168.074219 273.578125 C 170.152344 277.582031 172.714844 281.425781 175.597656 285.105469 C 181.359375 292.472656 188.40625 298.558594 196.570312 303.042969 C 204.894531 307.527344 214.019531 310.25 223.464844 310.890625 C 228.109375 311.210938 232.910156 311.210938 237.554688 310.730469 C 239.957031 310.570312 242.199219 310.089844 244.597656 309.769531 L 248.121094 309.128906 C 249.242188 308.96875 250.363281 308.648438 251.484375 308.328125 C 252.605469 308.007812 253.722656 307.6875 254.84375 307.527344 C 254.84375 307.527344 258.046875 312.171875 254.84375 324.980469 L 254.84375 325.140625 C 254.84375 325.140625 254.84375 325.140625 254.84375 325.300781 C 253.242188 332.1875 252.761719 339.234375 253.082031 346.277344 C 253.402344 350.441406 254.042969 354.445312 255.003906 358.449219 C 255.964844 362.453125 257.40625 366.296875 259.167969 370.140625 C 260.929688 373.824219 263.171875 377.503906 265.570312 380.707031 C 267.972656 384.070312 270.695312 387.113281 273.738281 389.996094 C 279.820312 395.601562 286.703125 400.246094 294.230469 403.609375 C 297.910156 405.210938 301.914062 406.652344 305.753906 407.769531 C 309.757812 408.890625 313.761719 409.691406 317.761719 410.171875 C 325.929688 411.132812 334.09375 410.8125 342.097656 409.210938 L 345.140625 408.570312 C 346.101562 408.410156 347.0625 408.089844 348.019531 407.769531 C 348.5 407.609375 348.980469 407.449219 349.460938 407.289062 L 350.902344 406.808594 C 351.863281 406.492188 352.824219 406.171875 353.785156 405.691406 C 357.46875 404.089844 361.148438 402.328125 364.671875 400.085938 C 365.472656 399.445312 366.433594 398.964844 367.234375 398.484375 L 369.632812 396.722656 L 372.035156 394.800781 C 372.355469 394.480469 372.835938 394.160156 373.15625 393.839844 L 374.277344 392.878906 C 375.078125 392.238281 375.71875 391.4375 376.519531 390.796875 L 377.640625 389.675781 L 378.601562 388.554688 C 380.039062 387.113281 381.160156 385.511719 382.441406 383.910156 C 387.246094 377.503906 391.085938 370.460938 393.808594 362.933594 L 395.730469 357.167969 C 396.050781 356.207031 396.371094 355.246094 396.53125 354.285156 C 396.691406 353.324219 397.171875 352.363281 397.332031 351.402344 L 398.773438 345.636719 L 399.09375 344.199219 C 399.253906 343.71875 399.253906 343.238281 399.414062 342.757812 L 400.054688 339.875 L 400.691406 336.992188 L 401.332031 334.109375 L 402.292969 328.183594 C 402.453125 327.703125 402.453125 327.222656 402.453125 326.742188 L 402.613281 325.300781 L 402.933594 322.257812 C 403.09375 320.335938 403.414062 318.253906 403.414062 316.332031 C 403.414062 314.414062 403.574219 312.332031 403.734375 310.410156 C 403.894531 308.488281 403.734375 306.40625 403.734375 304.324219 C 403.734375 303.363281 403.734375 302.402344 403.734375 301.28125 L 403.414062 295.195312 L 403.253906 293.753906 C 403.253906 293.273438 403.253906 292.792969 403.09375 292.3125 C 402.132812 284.308594 400.691406 276.460938 398.773438 268.773438 C 397.972656 265.890625 397.171875 263.167969 396.210938 260.285156 C 398.453125 263.488281 401.011719 266.53125 403.574219 269.574219 C 408.859375 275.660156 414.621094 281.265625 420.867188 286.386719 C 424.066406 288.789062 427.109375 291.351562 430.472656 293.59375 C 432.550781 295.035156 434.792969 296.476562 437.035156 297.757812 C 435.433594 300.800781 434.3125 304.003906 433.191406 307.367188 C 431.753906 312.332031 430.953125 317.292969 430.632812 322.417969 C 430.472656 327.542969 430.792969 332.667969 431.910156 337.792969 C 432.871094 342.757812 434.632812 347.71875 437.195312 352.203125 C 439.597656 356.6875 442.636719 360.851562 446.160156 364.535156 C 449.683594 368.21875 453.363281 371.582031 457.207031 374.625 C 457.207031 374.625 469.695312 385.832031 461.050781 395.921875 L 461.210938 395.921875 C 460.410156 396.402344 459.449219 396.722656 458.648438 397.203125 C 451.285156 400.886719 444.71875 405.691406 438.957031 411.613281 C 436.074219 414.496094 433.511719 417.859375 431.273438 421.222656 C 429.03125 424.746094 427.109375 428.269531 425.507812 432.113281 C 423.90625 435.957031 422.785156 439.957031 421.984375 443.960938 C 421.1875 447.964844 420.707031 452.128906 420.707031 456.292969 C 420.546875 464.621094 421.824219 472.785156 424.546875 480.632812 C 425.828125 484.476562 427.429688 488.320312 429.351562 492.003906 C 431.273438 495.6875 433.351562 499.207031 435.753906 502.410156 C 440.558594 509.136719 446.320312 514.902344 452.886719 519.867188 L 455.445312 521.628906 C 456.246094 522.269531 457.207031 522.75 458.007812 523.230469 C 458.488281 523.550781 458.808594 523.710938 459.289062 524.03125 L 460.570312 524.832031 C 461.53125 525.3125 462.332031 525.792969 463.292969 526.273438 C 466.972656 528.035156 470.816406 529.472656 474.65625 530.433594 C 475.617188 530.59375 476.578125 530.914062 477.539062 531.234375 L 480.582031 531.875 C 481.542969 532.035156 482.503906 532.195312 483.625 532.355469 C 484.105469 532.355469 484.585938 532.515625 485.0625 532.515625 L 486.503906 532.675781 C 487.464844 532.835938 488.585938 532.835938 489.546875 532.835938 L 492.429688 532.835938 C 494.351562 532.835938 496.429688 532.675781 498.511719 532.675781 C 506.515625 531.875 514.203125 529.953125 521.726562 526.914062 L 524.449219 525.792969 L 527.167969 524.511719 C 528.128906 524.191406 528.929688 523.710938 529.890625 523.230469 C 530.851562 522.75 531.652344 522.429688 532.613281 521.949219 L 537.894531 519.226562 L 539.175781 518.585938 C 539.65625 518.425781 539.976562 518.105469 540.457031 517.785156 L 545.582031 514.902344 L 546.863281 514.101562 L 548.140625 513.300781 L 553.105469 510.097656 C 553.585938 509.777344 553.90625 509.617188 554.386719 509.296875 L 555.667969 508.496094 L 558.070312 506.734375 C 559.667969 505.613281 561.269531 504.332031 562.871094 503.050781 C 564.472656 501.769531 565.914062 500.488281 567.515625 499.210938 C 569.113281 497.929688 570.394531 496.488281 571.835938 495.207031 L 574.078125 493.125 L 578.242188 488.640625 L 579.203125 487.519531 C 579.519531 487.199219 579.839844 486.71875 580.160156 486.398438 C 585.445312 480.3125 590.246094 474.066406 594.570312 467.34375 C 597.132812 463.339844 599.375 459.175781 601.613281 455.011719 C 601.613281 455.171875 601.613281 455.171875 601.613281 455.332031 L 600.652344 459.65625 L 600.175781 462.539062 C 600.015625 463.5 599.855469 464.460938 599.695312 465.421875 L 599.375 468.304688 L 599.214844 469.742188 C 599.214844 470.222656 599.054688 470.703125 599.054688 471.183594 C 598.253906 479.03125 598.09375 487.039062 598.414062 495.046875 C 598.734375 499.046875 598.894531 503.050781 599.535156 506.894531 L 600.015625 509.777344 L 600.175781 511.21875 L 600.496094 512.660156 C 600.8125 514.582031 601.292969 516.503906 601.613281 518.425781 C 601.773438 519.386719 602.09375 520.347656 602.414062 521.308594 L 604.015625 527.074219 C 604.335938 528.035156 604.65625 528.992188 604.976562 529.953125 L 606.898438 535.558594 L 608.980469 541.164062 C 609.300781 542.125 609.621094 542.925781 610.101562 543.886719 L 611.222656 546.609375 C 612.019531 548.371094 612.820312 550.292969 613.621094 552.054688 L 614.902344 554.777344 C 615.382812 555.738281 615.703125 556.539062 616.183594 557.5 L 616.824219 558.78125 C 616.984375 559.257812 617.304688 559.578125 617.464844 560.058594 L 618.90625 562.621094 C 620.988281 565.984375 623.066406 569.347656 625.46875 572.390625 C 627.871094 575.433594 630.59375 578.476562 633.472656 581.199219 C 639.398438 586.644531 646.121094 591.125 653.484375 594.167969 C 657.167969 595.769531 661.011719 597.050781 665.011719 597.851562 C 665.972656 598.171875 666.933594 598.171875 668.054688 598.492188 C 669.175781 598.8125 669.976562 598.8125 671.097656 598.972656 L 672.699219 599.132812 L 674.140625 599.292969 C 675.097656 599.292969 676.21875 599.453125 677.179688 599.453125 C 685.34375 599.773438 693.351562 598.8125 701.195312 596.570312 C 705.039062 595.449219 708.878906 594.007812 712.722656 592.40625 C 716.40625 590.804688 720.085938 588.726562 723.449219 586.644531 C 730.332031 582.160156 736.417969 576.714844 741.539062 570.148438 C 746.664062 563.582031 750.34375 556.21875 752.746094 548.371094 C 753.867188 544.367188 754.667969 540.363281 755.148438 536.359375 C 755.46875 532.355469 755.46875 528.195312 755.148438 524.191406 C 754.988281 521.789062 754.507812 519.226562 754.027344 516.824219 C 749.703125 495.207031 761.230469 486.878906 761.230469 486.878906 C 763.632812 487.039062 766.195312 487.039062 768.597656 486.878906 C 773.078125 486.71875 777.722656 486.078125 782.203125 485.117188 C 786.6875 484.15625 791.007812 482.714844 795.171875 480.792969 C 799.335938 478.871094 803.335938 476.628906 806.859375 473.746094 C 807.820312 473.105469 808.621094 472.304688 809.582031 471.664062 C 810.542969 471.023438 811.34375 470.222656 812.140625 469.421875 C 812.941406 468.621094 813.742188 467.820312 814.542969 467.023438 C 815.34375 466.222656 816.144531 465.421875 816.785156 464.460938 C 819.667969 461.097656 822.386719 457.414062 824.628906 453.410156 C 826.871094 449.566406 828.792969 445.5625 830.234375 441.238281 C 830.554688 440.277344 831.035156 439.15625 831.355469 438.035156 C 831.675781 436.914062 831.996094 435.957031 832.316406 434.835938 C 832.632812 433.714844 832.953125 432.753906 833.113281 431.632812 C 833.273438 430.511719 833.59375 429.390625 833.914062 428.429688 C 835.835938 419.300781 836.316406 410.332031 835.355469 401.527344 Z M 577.28125 291.992188 C 579.839844 294.714844 582.5625 297.4375 585.285156 300.160156 C 585.925781 300.800781 586.726562 301.441406 587.367188 302.082031 C 588.007812 302.722656 588.808594 303.363281 589.609375 304.003906 C 590.40625 304.644531 591.046875 305.285156 591.847656 305.925781 L 592.808594 306.726562 L 592.808594 307.367188 L 593.128906 311.210938 C 593.289062 312.492188 593.289062 313.773438 593.609375 315.054688 L 594.089844 318.894531 L 594.730469 322.738281 L 595.53125 326.582031 L 595.851562 328.503906 C 596.011719 329.144531 596.011719 329.785156 596.171875 330.425781 C 596.8125 332.988281 597.453125 335.390625 598.09375 337.792969 C 600.65625 347.238281 604.335938 356.367188 608.820312 365.015625 C 606.097656 366.777344 603.695312 368.859375 601.613281 371.261719 C 598.894531 374.625 596.8125 378.464844 595.691406 382.628906 C 595.53125 382.949219 595.53125 383.429688 595.371094 383.75 C 587.046875 379.265625 578.882812 374.785156 570.875 369.980469 C 568.796875 368.699219 566.714844 367.417969 564.632812 366.136719 L 561.589844 364.214844 L 558.546875 362.132812 C 556.46875 360.851562 554.546875 359.25 552.464844 357.96875 L 548.140625 354.605469 L 546.863281 353.484375 C 545.902344 352.683594 544.941406 352.042969 543.980469 351.242188 L 541.097656 348.839844 C 540.136719 348.039062 539.175781 347.238281 538.375 346.4375 C 537.894531 345.957031 537.414062 345.640625 536.9375 345.160156 L 535.496094 343.878906 C 531.8125 340.515625 528.449219 337.152344 525.089844 333.46875 C 521.726562 329.785156 518.683594 325.941406 515.804688 322.097656 C 514.363281 320.175781 513.082031 318.253906 511.960938 316.171875 C 519.164062 315.371094 526.210938 313.453125 532.773438 310.410156 C 536.457031 308.808594 539.976562 306.726562 543.339844 304.484375 C 544.140625 304.003906 544.941406 303.363281 545.742188 302.722656 C 546.542969 302.082031 547.34375 301.441406 548.140625 300.800781 L 550.382812 298.878906 C 551.183594 298.238281 551.824219 297.4375 552.625 296.796875 C 554.066406 295.355469 555.507812 293.914062 556.789062 292.3125 L 558.707031 289.910156 L 560.46875 287.507812 C 562.390625 284.625 564.3125 281.746094 565.914062 278.703125 L 566.234375 279.183594 C 566.875 279.984375 567.355469 280.785156 567.996094 281.425781 C 568.636719 282.066406 569.113281 283.027344 569.753906 283.667969 C 572.15625 286.386719 574.71875 289.109375 577.28125 291.992188 Z M 614.261719 368.058594 C 617.625 366.617188 621.148438 365.816406 624.828125 365.65625 C 632.195312 365.496094 639.238281 367.898438 644.839844 372.542969 C 647.722656 374.945312 650.125 377.664062 652.046875 380.867188 C 654.125 384.230469 655.40625 387.914062 655.886719 391.757812 C 657.007812 399.765625 654.125 407.769531 648.203125 413.375 C 645.320312 416.097656 641.960938 418.019531 638.4375 419.300781 C 631.394531 421.863281 623.707031 422.023438 616.664062 419.941406 C 612.980469 418.820312 609.621094 417.21875 606.738281 414.976562 C 603.695312 412.574219 601.132812 409.691406 599.375 406.171875 C 597.613281 402.648438 596.652344 398.804688 596.492188 394.960938 C 596.492188 391.117188 597.132812 387.273438 598.734375 383.75 C 599.535156 381.988281 600.496094 380.386719 601.453125 378.785156 L 602.253906 377.664062 C 602.574219 377.34375 602.894531 376.863281 603.054688 376.542969 C 603.214844 376.226562 603.695312 375.90625 604.015625 375.425781 C 604.335938 374.945312 604.65625 374.785156 604.976562 374.464844 C 607.859375 371.582031 610.902344 369.5 614.261719 368.058594 Z M 401.8125 80.933594 C 407.417969 74.367188 413.339844 68.125 419.746094 62.359375 C 421.347656 60.917969 422.945312 59.476562 424.546875 58.035156 L 427.109375 55.953125 C 427.910156 55.3125 428.710938 54.671875 429.671875 53.871094 C 433.03125 51.308594 436.394531 48.90625 440.078125 46.664062 C 447.28125 42.5 455.125 39.460938 463.453125 37.859375 C 467.613281 37.058594 471.777344 36.738281 475.9375 36.738281 C 480.101562 36.738281 484.425781 37.21875 488.585938 38.179688 C 496.910156 39.941406 504.917969 43.460938 511.960938 48.425781 C 526.210938 58.355469 536.457031 73.085938 540.777344 89.902344 C 542.859375 98.070312 543.179688 106.714844 541.898438 115.042969 C 541.257812 119.207031 540.136719 123.210938 538.695312 127.214844 L 537.417969 130.097656 C 536.9375 131.058594 536.457031 132.019531 535.976562 132.976562 C 535.015625 134.738281 533.894531 136.660156 532.773438 138.261719 C 530.371094 141.625 527.648438 144.828125 524.769531 147.710938 C 523.96875 148.351562 523.328125 149.152344 522.527344 149.953125 C 521.726562 150.753906 521.085938 151.394531 520.285156 152.035156 C 519.484375 152.675781 518.683594 153.316406 518.042969 154.117188 L 516.921875 155.238281 L 515.644531 156.359375 C 514.042969 157.800781 512.441406 159.082031 510.679688 160.523438 L 508.117188 162.605469 C 507.316406 163.242188 506.515625 163.882812 505.558594 164.523438 L 500.59375 168.527344 C 498.832031 169.808594 497.230469 171.089844 495.46875 172.371094 L 494.191406 173.332031 L 492.910156 174.292969 L 487.464844 177.816406 L 484.742188 179.417969 L 482.023438 181.019531 L 480.582031 181.820312 C 480.101562 182.140625 479.621094 182.300781 479.140625 182.621094 L 473.378906 185.664062 C 465.691406 189.507812 457.527344 192.710938 449.363281 195.269531 C 444.878906 196.710938 440.398438 197.832031 435.753906 198.792969 C 418.945312 201.515625 397.171875 193.03125 397.171875 193.03125 C 397.011719 190.949219 396.691406 188.867188 396.050781 186.945312 C 395.570312 184.863281 394.769531 182.941406 393.808594 181.019531 C 391.886719 177.175781 389.328125 173.8125 386.125 170.929688 C 384.523438 169.488281 382.761719 168.207031 381 167.085938 C 380.199219 166.605469 379.242188 165.964844 378.28125 165.484375 C 381.640625 156.039062 383.882812 146.269531 385.003906 136.339844 C 385.324219 133.777344 385.484375 131.21875 385.644531 128.65625 C 385.644531 128.015625 385.644531 127.375 385.804688 126.734375 L 385.804688 124.8125 L 385.964844 120.96875 C 385.964844 120.328125 385.964844 119.6875 385.964844 119.046875 L 385.964844 113.28125 C 385.964844 112 385.804688 110.71875 385.804688 109.4375 C 385.644531 103.03125 389.808594 96.148438 391.085938 94.226562 C 394.929688 89.421875 398.292969 85.097656 401.8125 80.933594 Z M 395.410156 198.632812 C 395.25 200.554688 394.769531 202.476562 393.96875 204.238281 C 392.527344 207.761719 390.285156 210.804688 387.726562 213.527344 C 386.445312 214.96875 385.164062 216.25 383.882812 217.371094 C 382.441406 218.652344 381 219.773438 379.398438 220.734375 C 377.800781 221.695312 376.199219 222.65625 374.4375 223.296875 C 372.675781 223.933594 370.753906 224.414062 368.992188 224.574219 C 365.152344 224.894531 361.46875 224.414062 357.949219 223.136719 C 354.425781 221.855469 351.222656 219.933594 348.5 217.53125 C 340.335938 210.164062 337.292969 198.632812 340.816406 188.226562 C 341.9375 185.023438 343.699219 181.980469 346.101562 179.257812 C 349.460938 175.414062 353.945312 172.53125 358.746094 170.929688 C 360.347656 170.449219 361.949219 169.96875 363.710938 169.808594 C 365.472656 169.488281 367.074219 169.328125 368.832031 169.167969 C 370.59375 169.007812 372.515625 169.007812 374.277344 169.328125 C 376.039062 169.648438 377.960938 170.128906 379.558594 170.929688 C 381.320312 171.730469 382.921875 172.53125 384.363281 173.652344 C 390.605469 178.296875 394.609375 185.34375 395.570312 193.03125 C 395.730469 194.949219 395.730469 196.871094 395.410156 198.632812 Z M 247.960938 111.359375 C 246.679688 109.277344 245.398438 107.195312 244.117188 105.113281 L 242.355469 101.914062 C 241.878906 100.792969 241.238281 99.832031 240.757812 98.710938 C 238.675781 94.546875 236.753906 90.222656 235.472656 85.738281 C 234.03125 81.253906 233.230469 76.609375 232.910156 71.804688 C 232.589844 67.003906 232.910156 62.199219 233.710938 57.554688 C 234.671875 52.75 236.113281 48.265625 238.195312 43.78125 C 240.277344 39.300781 242.835938 35.136719 245.71875 31.292969 C 248.761719 27.449219 252.125 23.765625 255.804688 20.5625 C 259.488281 17.359375 263.648438 14.316406 267.8125 11.914062 C 272.136719 9.515625 276.617188 7.433594 281.421875 5.832031 C 283.824219 5.03125 286.222656 4.390625 288.625 3.910156 C 289.90625 3.589844 291.027344 3.429688 292.308594 3.269531 L 294.230469 2.949219 C 294.871094 2.789062 295.507812 2.789062 296.148438 2.789062 C 301.113281 2.308594 306.074219 2.308594 311.039062 2.789062 C 311.679688 2.789062 312.320312 2.949219 312.960938 3.109375 L 314.882812 3.429688 L 316.640625 3.75 C 317.28125 3.910156 317.921875 3.910156 318.402344 4.230469 C 319.683594 4.550781 320.804688 4.871094 321.925781 5.191406 L 323.6875 5.832031 C 324.328125 5.992188 324.808594 6.3125 325.449219 6.472656 C 330.089844 8.234375 334.414062 10.632812 338.574219 13.515625 C 342.578125 16.398438 346.261719 19.761719 349.460938 23.445312 C 352.664062 27.128906 355.546875 31.292969 357.949219 35.457031 L 359.707031 38.660156 C 360.347656 39.78125 360.828125 40.902344 361.46875 42.019531 C 362.589844 44.261719 363.550781 46.503906 364.671875 48.746094 C 368.832031 57.875 372.195312 67.164062 375.078125 76.609375 C 377.800781 86.21875 379.878906 95.988281 381.160156 105.753906 L 381.480469 109.4375 C 381.640625 110.71875 381.800781 111.839844 381.800781 113.121094 L 381.960938 116.804688 L 382.121094 118.726562 C 382.121094 119.367188 382.28125 120.007812 382.28125 120.648438 C 382.28125 123.210938 382.441406 125.613281 382.441406 128.175781 C 382.441406 130.738281 382.28125 133.136719 382.28125 135.699219 C 381.800781 145.46875 380.519531 155.238281 378.441406 164.84375 C 377.640625 164.363281 376.839844 164.042969 376.039062 163.722656 C 373.957031 162.765625 371.875 162.125 369.632812 161.484375 C 368.832031 161.324219 367.875 161.164062 367.074219 161.003906 C 367.234375 160.363281 367.394531 159.882812 367.714844 159.242188 C 368.355469 157.320312 368.832031 155.238281 369.3125 153.15625 C 369.792969 151.074219 370.113281 149.152344 370.433594 147.070312 C 370.753906 144.988281 370.914062 142.90625 371.074219 140.824219 C 371.394531 136.660156 371.554688 132.496094 371.234375 128.335938 C 371.074219 124.171875 370.59375 120.007812 369.792969 115.84375 C 368.992188 111.679688 367.875 107.515625 366.433594 103.671875 C 364.992188 99.671875 363.230469 95.828125 360.988281 92.144531 C 360.347656 91.183594 359.867188 90.382812 359.226562 89.421875 C 358.585938 88.460938 357.949219 87.660156 357.308594 86.859375 C 356.027344 85.097656 354.585938 83.496094 353.144531 82.054688 C 351.703125 80.613281 350.101562 79.171875 348.339844 77.890625 C 346.742188 76.609375 344.820312 75.488281 342.898438 74.6875 C 345.300781 77.890625 347.222656 81.414062 348.980469 85.097656 C 349.460938 86.058594 349.78125 86.859375 350.261719 87.820312 C 350.742188 88.78125 351.0625 89.582031 351.382812 90.542969 C 351.703125 91.503906 352.023438 92.304688 352.503906 93.265625 L 353.464844 95.988281 C 356.027344 103.191406 357.949219 110.71875 359.386719 118.246094 C 360.828125 125.773438 361.789062 133.457031 362.75 141.304688 C 362.910156 143.226562 363.070312 145.308594 363.390625 147.230469 C 363.550781 148.191406 363.550781 149.152344 363.710938 150.273438 L 364.03125 153.316406 C 364.191406 155.398438 364.511719 157.320312 364.671875 159.402344 C 364.671875 160.042969 364.832031 160.683594 364.832031 161.164062 C 364.191406 161.164062 363.390625 161.164062 362.75 161.164062 C 360.507812 161.324219 358.105469 161.644531 355.867188 162.285156 C 353.625 162.921875 351.542969 163.722656 349.460938 164.84375 C 345.300781 167.085938 341.777344 170.128906 338.894531 173.8125 C 336.175781 177.496094 334.09375 181.660156 332.8125 185.984375 C 332.652344 186.785156 332.492188 187.425781 332.332031 188.226562 C 324.167969 184.222656 316.160156 179.738281 308.476562 174.773438 C 300.3125 169.328125 292.46875 163.242188 285.101562 156.679688 C 277.898438 150.113281 271.175781 143.066406 264.929688 135.539062 C 258.847656 127.535156 253.082031 119.6875 247.960938 111.359375 Z M 249.402344 299.519531 C 248.28125 299.839844 247.320312 300.160156 246.199219 300.480469 L 243.15625 301.28125 C 241.078125 301.761719 238.996094 302.242188 236.914062 302.5625 C 232.75 303.363281 228.429688 303.683594 224.105469 303.523438 C 219.785156 303.363281 215.621094 302.882812 211.457031 301.921875 C 207.296875 300.960938 203.292969 299.519531 199.453125 297.757812 C 195.609375 295.835938 191.765625 293.753906 188.40625 291.03125 C 184.882812 288.46875 181.679688 285.425781 178.800781 282.226562 C 166.792969 268.933594 160.386719 251.640625 160.546875 233.863281 C 160.707031 225.054688 162.46875 216.25 166.152344 208.242188 C 169.671875 200.394531 174.796875 193.191406 181.359375 187.425781 C 187.765625 181.660156 195.128906 177.015625 203.132812 173.8125 L 209.21875 171.570312 C 210.179688 171.25 211.296875 170.929688 212.417969 170.609375 C 213.539062 170.289062 214.5 169.96875 215.621094 169.648438 C 217.703125 169.007812 219.945312 168.527344 222.023438 167.886719 L 225.226562 167.085938 C 226.347656 166.765625 227.308594 166.605469 228.429688 166.285156 C 230.511719 165.804688 232.75 165.484375 234.992188 165.003906 C 237.234375 164.523438 239.316406 164.203125 241.558594 163.882812 C 245.878906 163.242188 250.363281 162.765625 254.84375 162.445312 C 261.730469 161.964844 268.613281 161.804688 275.496094 161.964844 C 276.617188 162.921875 277.738281 163.722656 278.859375 164.523438 C 287.183594 170.769531 296.148438 176.214844 305.59375 180.539062 C 314.242188 184.542969 323.207031 187.425781 332.492188 189.347656 C 331.210938 197.03125 332.652344 205.039062 336.65625 211.765625 L 337.132812 212.566406 C 328.808594 215.609375 320.484375 218.332031 312 220.894531 C 309.597656 221.535156 307.195312 222.335938 304.957031 222.816406 L 301.433594 223.777344 L 297.910156 224.574219 C 295.507812 225.214844 293.109375 225.695312 290.707031 226.175781 L 287.023438 226.816406 L 285.261719 227.136719 L 283.503906 227.457031 C 282.222656 227.617188 281.101562 227.9375 279.820312 228.097656 L 276.136719 228.578125 C 274.855469 228.738281 273.738281 228.898438 272.457031 229.058594 L 268.933594 229.378906 C 264.128906 229.859375 259.167969 230.019531 254.203125 230.019531 C 249.242188 230.019531 244.4375 229.699219 239.476562 229.21875 C 237.074219 228.898438 234.671875 228.578125 232.109375 228.097656 C 230.832031 227.9375 229.710938 227.617188 228.429688 227.296875 C 227.148438 226.976562 226.027344 226.65625 224.90625 226.335938 C 227.148438 227.457031 229.390625 228.578125 231.789062 229.378906 C 234.191406 230.179688 236.59375 230.820312 238.996094 231.460938 C 243.957031 232.582031 248.921875 233.222656 253.882812 233.703125 C 258.847656 234.023438 263.96875 234.023438 268.933594 233.703125 L 270.855469 233.542969 C 271.496094 233.542969 272.136719 233.382812 272.777344 233.382812 C 274.054688 233.222656 275.335938 233.222656 276.457031 233.0625 L 280.140625 232.582031 C 281.421875 232.421875 282.703125 232.261719 283.824219 231.941406 L 285.742188 231.621094 L 287.503906 231.300781 C 288.785156 230.980469 289.90625 230.820312 291.1875 230.5 L 294.871094 229.699219 L 296.789062 229.21875 L 298.550781 228.738281 L 302.234375 227.777344 L 305.753906 226.65625 C 308.15625 226.015625 310.558594 225.054688 312.800781 224.253906 C 321.125 221.214844 329.289062 217.371094 337.132812 213.046875 C 338.414062 214.96875 339.855469 216.730469 341.457031 218.332031 C 334.09375 224.414062 326.726562 230.179688 319.042969 235.625 L 317.441406 236.746094 L 315.84375 237.867188 L 309.4375 242.351562 C 308.316406 243.152344 307.355469 243.792969 306.234375 244.433594 L 303.035156 246.515625 L 299.671875 248.597656 L 296.46875 250.519531 C 295.347656 251.160156 294.230469 251.800781 293.109375 252.441406 C 284.144531 257.5625 274.695312 262.207031 265.25 266.371094 C 260.449219 268.453125 255.644531 270.375 250.683594 272.136719 C 245.71875 273.898438 240.757812 275.5 235.632812 276.78125 C 236.914062 276.78125 238.355469 276.78125 239.636719 276.621094 C 240.917969 276.460938 242.355469 276.460938 243.636719 276.300781 C 246.359375 275.980469 248.921875 275.5 251.484375 275.019531 C 256.765625 273.898438 261.890625 272.617188 266.851562 270.855469 C 276.9375 267.492188 286.703125 263.007812 295.988281 257.722656 C 300.632812 255 305.117188 252.28125 309.4375 249.078125 C 310.558594 248.277344 311.519531 247.476562 312.640625 246.675781 C 313.761719 245.875 314.722656 245.074219 315.84375 244.273438 C 317.921875 242.671875 320.003906 241.070312 321.925781 239.148438 C 329.128906 232.902344 335.855469 226.175781 341.9375 218.652344 C 342.898438 219.613281 344.019531 220.574219 345.140625 221.375 C 347.222656 222.976562 349.460938 224.253906 351.863281 225.375 C 347.222656 231.78125 342.417969 237.867188 337.132812 243.632812 C 334.253906 246.996094 331.050781 250.039062 328.007812 253.242188 L 323.207031 257.722656 C 322.40625 258.523438 321.605469 259.164062 320.644531 259.964844 L 318.082031 262.046875 C 316.480469 263.488281 314.722656 264.769531 312.960938 266.210938 L 310.398438 268.292969 C 309.917969 268.613281 309.4375 268.933594 309.117188 269.253906 L 307.835938 270.214844 L 305.117188 271.976562 C 304.15625 272.617188 303.355469 273.257812 302.394531 273.898438 C 300.472656 275.019531 298.710938 276.300781 296.949219 277.421875 C 289.585938 281.90625 281.742188 286.066406 273.898438 289.75 C 265.890625 293.59375 257.726562 296.796875 249.402344 299.519531 Z M 396.691406 284.945312 L 397.492188 292.152344 C 397.652344 294.074219 397.652344 295.996094 397.8125 297.917969 L 397.972656 300.800781 L 397.972656 303.683594 L 398.132812 306.566406 C 398.132812 307.527344 398.292969 308.488281 398.292969 309.449219 C 398.292969 311.371094 398.292969 313.292969 398.292969 315.214844 C 398.292969 323.058594 397.652344 330.746094 396.691406 338.433594 L 396.371094 341.316406 C 396.371094 341.796875 396.210938 342.277344 396.210938 342.757812 L 395.890625 344.199219 L 394.769531 349.960938 C 394.609375 350.921875 394.449219 351.882812 394.128906 352.84375 C 393.808594 353.804688 393.648438 354.765625 393.488281 355.726562 L 392.6875 358.609375 C 392.367188 359.570312 392.046875 360.371094 391.726562 361.332031 C 390.445312 365.015625 389.007812 368.539062 387.085938 371.902344 C 386.925781 372.382812 386.605469 372.703125 386.445312 373.183594 L 385.644531 374.464844 C 385.164062 375.265625 384.683594 376.066406 384.042969 376.863281 C 383.402344 377.664062 382.921875 378.464844 382.441406 379.265625 L 380.679688 381.507812 C 379.398438 382.949219 378.121094 384.390625 376.839844 385.832031 L 375.878906 386.792969 L 374.757812 387.753906 C 374.117188 388.394531 373.316406 389.035156 372.515625 389.675781 C 369.472656 392.078125 366.273438 394.320312 362.910156 396.082031 C 359.546875 397.84375 356.027344 399.285156 352.34375 400.566406 C 351.382812 400.886719 350.582031 401.207031 349.621094 401.367188 C 348.660156 401.527344 347.859375 401.847656 346.902344 402.007812 C 345.941406 402.167969 344.980469 402.488281 344.179688 402.648438 L 341.296875 403.128906 C 326.25 405.371094 310.878906 402.96875 297.269531 396.5625 C 290.546875 393.359375 284.304688 389.195312 278.699219 384.070312 C 273.257812 378.945312 268.613281 373.023438 265.089844 366.457031 C 263.492188 363.09375 262.050781 359.730469 261.089844 356.207031 C 259.96875 352.683594 259.167969 349 258.6875 345.160156 C 258.527344 344.199219 258.527344 343.238281 258.367188 342.277344 C 258.207031 341.316406 258.207031 340.355469 258.207031 339.394531 C 258.207031 338.433594 258.046875 337.472656 258.046875 336.511719 L 258.046875 333.628906 C 258.046875 333.148438 258.046875 332.667969 258.046875 332.1875 L 258.207031 330.746094 L 258.207031 329.304688 C 258.207031 328.824219 258.367188 328.34375 258.367188 327.863281 L 258.6875 324.980469 L 259.167969 322.097656 C 260.128906 316.171875 261.410156 310.25 262.851562 304.484375 L 264.929688 303.84375 L 268.132812 302.722656 L 271.335938 301.441406 L 277.738281 298.878906 C 286.222656 295.195312 294.550781 290.710938 302.234375 285.425781 C 309.917969 280.144531 316.960938 274.378906 323.527344 267.8125 L 325.929688 265.410156 C 326.726562 264.609375 327.527344 263.808594 328.328125 262.847656 L 332.8125 257.722656 C 334.253906 255.960938 335.695312 254.203125 337.136719 252.28125 L 338.253906 250.839844 L 341.136719 246.515625 C 345.78125 239.949219 349.621094 232.742188 352.824219 225.375 C 353.945312 225.855469 355.226562 226.175781 356.347656 226.496094 C 360.507812 227.457031 364.832031 227.777344 368.992188 227.457031 C 372.195312 227.136719 375.558594 226.335938 378.601562 225.214844 C 379.558594 227.136719 380.359375 229.058594 381.320312 231.140625 C 382.441406 234.023438 383.5625 236.90625 384.84375 239.628906 C 385.804688 241.871094 386.605469 243.953125 387.40625 246.195312 C 389.964844 253.5625 392.046875 261.085938 393.808594 268.613281 C 394.449219 272.457031 395.410156 276.140625 395.890625 279.984375 L 396.371094 282.867188 C 396.53125 283.988281 396.691406 284.46875 396.691406 284.945312 Z M 436.554688 284.46875 C 433.351562 282.386719 430.472656 279.984375 427.429688 277.742188 C 425.988281 276.621094 424.546875 275.339844 423.105469 274.21875 C 422.304688 273.578125 421.664062 273.097656 420.867188 272.457031 L 418.785156 270.535156 C 418.144531 269.894531 417.34375 269.253906 416.703125 268.613281 L 415.582031 267.652344 L 414.621094 266.691406 C 413.179688 265.410156 411.898438 264.128906 410.460938 262.847656 C 405.015625 257.402344 399.894531 251.960938 394.929688 246.035156 C 390.285156 240.429688 385.964844 234.664062 381.640625 228.578125 C 381 227.617188 380.359375 226.65625 379.71875 225.695312 C 380.359375 225.535156 381 225.214844 381.640625 224.894531 C 383.5625 223.933594 385.484375 222.816406 387.246094 221.535156 C 389.007812 220.253906 390.445312 218.652344 391.886719 216.890625 C 392.6875 215.929688 393.328125 214.808594 393.96875 213.6875 C 397.8125 207.601562 412.378906 204.558594 423.265625 203.117188 C 423.90625 203.117188 424.386719 203.117188 425.027344 203.117188 C 428.550781 202.957031 432.070312 202.476562 435.59375 201.996094 L 435.914062 201.996094 C 441.039062 201.355469 446.160156 200.394531 451.125 199.273438 C 459.769531 197.191406 468.253906 194.628906 476.578125 191.269531 L 482.664062 188.707031 C 483.144531 188.546875 483.625 188.226562 484.265625 188.066406 L 485.703125 187.425781 L 491.789062 184.542969 L 494.671875 182.941406 L 497.710938 181.339844 L 500.59375 179.738281 C 503.957031 177.816406 507.15625 175.894531 510.199219 173.652344 C 515.804688 175.574219 521.40625 177.816406 526.847656 180.378906 L 531.972656 182.941406 C 532.453125 183.101562 532.773438 183.421875 533.253906 183.582031 L 534.535156 184.222656 C 535.335938 184.703125 536.136719 185.183594 536.9375 185.664062 L 539.335938 187.265625 C 540.136719 187.746094 540.9375 188.386719 541.578125 188.867188 L 542.699219 189.667969 L 543.820312 190.628906 C 544.621094 191.269531 545.261719 191.75 546.0625 192.390625 C 548.941406 194.789062 551.503906 197.511719 553.90625 200.394531 C 556.308594 203.277344 558.386719 206.320312 560.148438 209.523438 C 561.910156 212.726562 563.351562 216.25 564.632812 219.613281 C 565.753906 223.136719 566.714844 226.65625 567.355469 230.339844 C 569.59375 245.234375 567.515625 260.285156 561.269531 273.898438 C 558.070312 280.785156 554.066406 287.027344 549.101562 292.792969 C 548.460938 293.433594 547.820312 294.234375 547.183594 294.875 L 545.261719 296.796875 C 544.621094 297.4375 543.980469 298.078125 543.179688 298.71875 C 542.378906 299.359375 541.738281 300 541.097656 300.640625 C 538.214844 303.042969 535.015625 305.125 531.8125 307.046875 C 525.570312 310.570312 518.523438 312.972656 511.320312 313.933594 L 510.359375 314.09375 L 510.039062 314.09375 C 509.078125 314.253906 508.117188 314.253906 507.15625 314.253906 L 502.835938 314.253906 C 502.355469 314.253906 501.875 314.253906 501.394531 314.253906 L 498.511719 314.09375 C 496.589844 313.933594 494.671875 313.773438 492.75 313.292969 C 490.828125 312.8125 488.90625 312.492188 487.144531 312.011719 C 483.464844 310.890625 479.78125 309.609375 476.257812 308.007812 C 474.496094 307.207031 472.738281 306.40625 470.976562 305.445312 L 468.414062 304.164062 C 467.613281 303.683594 466.652344 303.203125 465.851562 302.722656 L 460.730469 300 L 455.925781 296.957031 L 454.644531 296.15625 C 454.164062 295.835938 453.84375 295.675781 453.363281 295.355469 L 450.964844 293.753906 C 449.363281 292.792969 447.761719 291.671875 446.160156 290.710938 C 444.558594 289.75 443.117188 288.46875 441.519531 287.507812 L 439.277344 285.90625 Z M 458.96875 372.0625 C 455.285156 368.859375 452.085938 365.335938 449.363281 361.332031 C 446.640625 357.328125 444.398438 353.164062 442.636719 348.839844 C 442.320312 348.359375 442.160156 347.71875 442 347.238281 L 441.359375 345.640625 L 440.71875 344.039062 C 440.558594 343.558594 440.238281 342.917969 440.078125 342.4375 C 439.757812 341.316406 439.277344 340.195312 439.117188 339.074219 C 438.957031 338.433594 438.796875 337.953125 438.636719 337.3125 L 438.15625 335.550781 L 437.835938 333.949219 L 437.195312 330.425781 C 437.035156 329.785156 437.035156 329.304688 436.875 328.664062 L 436.714844 326.902344 C 436.554688 326.261719 436.554688 325.78125 436.554688 325.140625 C 436.394531 324.019531 436.394531 322.738281 436.394531 321.617188 C 436.234375 316.8125 436.554688 312.011719 437.195312 307.367188 C 437.675781 304.164062 438.316406 301.121094 438.957031 297.917969 L 441.199219 299.199219 C 442 299.679688 442.957031 300.160156 443.917969 300.640625 L 449.363281 303.203125 C 450.324219 303.683594 451.125 304.003906 452.085938 304.324219 L 457.6875 306.566406 L 463.292969 308.488281 C 464.25 308.808594 465.210938 309.128906 466.171875 309.449219 L 469.054688 310.25 L 474.816406 312.011719 L 477.699219 312.8125 C 478.660156 313.132812 479.621094 313.292969 480.582031 313.613281 L 482.023438 313.933594 C 482.503906 314.09375 482.984375 314.09375 483.464844 314.253906 L 486.34375 314.890625 C 490.1875 315.691406 494.191406 316.171875 498.191406 316.492188 C 502.195312 316.652344 506.195312 316.652344 510.039062 316.332031 L 511 316.332031 L 511 316.492188 C 511.960938 318.734375 513.082031 320.976562 514.363281 323.21875 C 516.921875 327.542969 519.644531 331.707031 522.847656 335.710938 C 526.050781 339.714844 529.410156 343.398438 532.933594 346.917969 L 535.816406 349.480469 C 536.777344 350.28125 537.734375 351.242188 538.695312 352.042969 L 541.578125 354.445312 C 542.539062 355.246094 543.5 356.046875 544.460938 356.847656 L 547.34375 359.089844 C 548.300781 359.890625 549.421875 360.53125 550.382812 361.332031 L 553.425781 363.414062 L 555.027344 364.535156 L 556.628906 365.496094 L 559.828125 367.417969 L 563.03125 369.339844 C 565.113281 370.621094 567.355469 371.742188 569.59375 373.023438 C 577.921875 377.34375 586.726562 381.1875 595.691406 384.070312 C 595.371094 385.671875 595.050781 387.273438 594.890625 388.714844 C 594.890625 389.355469 594.730469 389.835938 594.730469 390.476562 C 584.804688 389.035156 574.878906 387.433594 565.113281 385.351562 L 563.191406 385.03125 L 561.269531 384.550781 L 557.429688 383.75 L 553.585938 382.789062 C 552.304688 382.46875 551.023438 382.148438 549.742188 381.828125 L 545.902344 380.867188 L 542.21875 379.746094 L 540.296875 379.265625 L 538.375 378.625 C 537.097656 378.304688 535.816406 377.824219 534.695312 377.503906 C 524.769531 374.304688 515.164062 370.621094 505.714844 366.296875 C 500.914062 364.214844 496.269531 361.8125 491.789062 359.410156 C 487.304688 357.007812 482.664062 354.285156 478.339844 351.402344 C 479.300781 352.363281 480.101562 353.324219 481.0625 354.285156 C 482.023438 355.246094 482.984375 356.046875 484.105469 357.007812 C 486.183594 358.769531 488.265625 360.371094 490.347656 361.972656 C 494.671875 365.175781 499.152344 368.058594 503.796875 370.621094 C 513.082031 375.742188 523.007812 380.066406 533.09375 383.269531 C 538.214844 384.871094 543.339844 386.3125 548.460938 387.433594 C 549.742188 387.753906 551.023438 388.074219 552.304688 388.234375 L 556.148438 389.035156 C 558.707031 389.355469 561.429688 389.835938 563.992188 390.15625 C 574.078125 391.4375 584.164062 391.757812 594.25 391.117188 C 594.25 392.558594 594.25 393.839844 594.25 395.28125 C 594.410156 397.84375 594.890625 400.40625 595.691406 402.808594 C 593.769531 402.96875 592.007812 403.289062 590.085938 403.449219 C 588.808594 403.609375 587.6875 403.609375 586.40625 403.769531 C 585.125 403.929688 584.003906 403.929688 582.722656 404.089844 C 581.441406 404.25 580.320312 404.25 579.042969 404.25 L 575.359375 404.410156 L 568.316406 404.410156 C 558.707031 404.410156 549.101562 403.769531 539.496094 402.488281 C 529.890625 401.207031 520.445312 399.125 511.160156 396.5625 C 510.519531 396.402344 510.039062 396.242188 509.398438 396.082031 L 507.636719 395.601562 L 504.117188 394.480469 L 502.355469 394 L 500.753906 393.359375 L 497.390625 392.078125 L 494.03125 390.957031 C 492.910156 390.476562 491.789062 390.15625 490.667969 389.675781 L 487.304688 388.394531 L 485.542969 387.753906 L 483.945312 386.953125 L 480.582031 385.511719 C 479.460938 385.03125 478.339844 384.550781 477.21875 383.910156 L 474.015625 382.148438 C 472.898438 381.507812 471.777344 381.027344 470.816406 380.386719 C 466.8125 377.984375 462.652344 375.265625 458.96875 372.0625 Z M 603.054688 443.480469 C 599.375 450.207031 595.210938 456.933594 590.726562 463.179688 C 588.328125 466.222656 586.246094 469.421875 583.683594 472.464844 L 581.921875 474.867188 C 581.601562 475.1875 581.28125 475.667969 580.960938 475.988281 L 580 477.109375 L 576.160156 481.433594 C 574.878906 482.875 573.4375 484.15625 572.15625 485.597656 L 570.234375 487.679688 L 568.15625 489.761719 L 566.074219 491.84375 C 565.433594 492.484375 564.632812 493.285156 563.992188 493.925781 C 562.550781 495.207031 561.109375 496.488281 559.667969 497.765625 C 553.90625 502.890625 547.820312 507.855469 541.417969 512.339844 L 539.015625 513.941406 C 538.695312 514.261719 538.214844 514.582031 537.734375 514.742188 L 536.457031 515.542969 L 531.492188 518.585938 C 530.691406 519.066406 529.890625 519.546875 528.929688 520.027344 C 527.96875 520.507812 527.167969 520.988281 526.371094 521.46875 L 523.808594 522.75 C 522.847656 523.230469 522.046875 523.550781 521.085938 524.03125 C 517.5625 525.632812 513.882812 526.753906 510.039062 527.710938 L 507.15625 528.351562 C 506.195312 528.511719 505.238281 528.671875 504.277344 528.832031 L 501.394531 529.152344 L 498.511719 529.3125 C 496.589844 529.3125 494.671875 529.472656 492.75 529.3125 L 491.308594 529.3125 L 489.867188 529.152344 C 488.90625 528.992188 487.945312 528.992188 486.984375 528.832031 C 483.144531 528.351562 479.460938 527.394531 475.777344 526.113281 C 472.257812 524.832031 468.734375 523.230469 465.371094 521.308594 C 464.570312 520.828125 463.769531 520.347656 462.972656 519.867188 C 462.171875 519.386719 461.371094 518.90625 460.570312 518.265625 C 459.769531 517.625 458.96875 517.144531 458.328125 516.664062 C 457.6875 516.183594 456.886719 515.542969 456.085938 514.902344 C 444.398438 505.292969 435.753906 492.324219 431.273438 477.910156 C 429.03125 470.703125 427.910156 463.339844 427.910156 455.8125 C 427.910156 448.285156 429.191406 440.917969 431.753906 433.875 C 433.03125 430.351562 434.632812 426.988281 436.554688 423.785156 C 438.476562 420.582031 440.558594 417.378906 443.117188 414.65625 C 443.757812 413.855469 444.398438 413.214844 445.039062 412.574219 C 445.679688 411.933594 446.320312 411.132812 446.960938 410.492188 C 447.601562 409.851562 448.242188 409.210938 449.042969 408.570312 L 451.125 406.648438 C 451.445312 406.328125 451.765625 406.007812 452.246094 405.691406 L 453.363281 404.730469 L 454.484375 403.769531 C 454.804688 403.449219 455.285156 403.128906 455.605469 402.96875 L 458.007812 401.207031 L 460.410156 399.605469 C 466.492188 395.601562 472.898438 392.078125 479.300781 388.714844 L 482.023438 390.476562 L 483.625 391.4375 L 485.222656 392.398438 L 488.585938 394.160156 C 489.707031 394.800781 490.828125 395.441406 491.949219 395.921875 L 495.308594 397.523438 C 497.550781 398.484375 499.792969 399.605469 502.195312 400.40625 L 505.71875 401.6875 L 507.476562 402.328125 C 508.117188 402.488281 508.757812 402.648438 509.238281 402.96875 C 518.683594 406.328125 528.609375 408.570312 538.535156 409.691406 C 548.460938 410.8125 558.550781 410.8125 568.636719 409.851562 C 573.597656 409.371094 578.5625 408.570312 583.363281 407.449219 C 585.765625 406.808594 588.167969 406.167969 590.566406 405.53125 L 596.011719 403.769531 C 596.011719 404.089844 596.171875 404.25 596.332031 404.570312 C 592.96875 409.210938 589.289062 413.535156 585.285156 417.859375 L 583.683594 419.621094 C 583.203125 420.261719 582.5625 420.742188 582.082031 421.222656 C 580.960938 422.34375 579.839844 423.464844 578.722656 424.425781 C 576.320312 426.507812 574.078125 428.589844 571.515625 430.511719 C 561.75 438.195312 550.863281 444.441406 539.175781 448.925781 C 527.488281 453.570312 515.324219 456.773438 502.996094 458.855469 C 496.75 459.976562 490.507812 460.777344 484.105469 461.417969 C 477.699219 462.058594 471.296875 462.539062 464.730469 462.699219 C 467.933594 463.660156 471.136719 464.300781 474.335938 464.78125 C 477.539062 465.261719 480.902344 465.742188 484.105469 465.902344 C 490.667969 466.382812 497.230469 466.382812 503.796875 466.0625 C 517.082031 465.261719 530.210938 462.21875 542.539062 457.414062 C 555.027344 452.449219 566.554688 445.242188 576.160156 435.796875 C 583.363281 428.75 589.289062 420.582031 593.769531 411.613281 C 593.769531 411.613281 607.859375 419.140625 609.460938 429.230469 C 607.859375 433.875 605.457031 438.675781 603.054688 443.480469 Z M 821.75 450.847656 C 819.347656 454.371094 816.785156 457.574219 813.742188 460.617188 C 812.941406 461.417969 812.300781 462.058594 811.5 462.859375 C 810.703125 463.660156 809.902344 464.300781 809.101562 464.941406 C 808.300781 465.582031 807.5 466.222656 806.699219 466.863281 C 805.898438 467.503906 805.097656 468.140625 804.136719 468.621094 C 797.253906 473.265625 789.410156 476.46875 781.242188 478.070312 C 777.082031 478.871094 772.917969 479.351562 768.757812 479.351562 L 765.554688 479.351562 L 762.351562 479.191406 L 760.75 479.191406 L 759.148438 479.03125 L 757.550781 478.871094 L 755.949219 478.710938 C 753.867188 478.550781 751.785156 478.070312 749.542969 477.75 C 747.304688 477.429688 745.382812 477.109375 743.140625 476.628906 L 736.898438 475.347656 C 734.816406 474.867188 732.734375 474.226562 730.652344 473.746094 C 722.328125 471.503906 714.324219 468.78125 706.316406 465.582031 L 700.394531 463.019531 L 697.511719 461.738281 L 694.632812 460.296875 L 691.75 458.855469 L 685.984375 455.652344 C 685.503906 455.332031 685.027344 455.171875 684.546875 454.851562 L 683.105469 454.050781 C 681.34375 452.929688 679.421875 451.808594 677.660156 450.6875 L 672.21875 447.164062 L 667.09375 443.320312 C 665.332031 442.039062 663.734375 440.597656 661.972656 439.316406 C 655.246094 433.875 649.003906 427.789062 643.082031 421.382812 L 642.601562 421.863281 C 647.722656 429.070312 653.328125 435.796875 659.730469 441.878906 C 662.933594 445.082031 666.132812 447.964844 669.65625 450.6875 L 674.941406 454.691406 C 675.738281 455.332031 676.699219 455.972656 677.660156 456.613281 L 680.382812 458.535156 L 681.824219 459.496094 C 682.304688 459.816406 682.785156 460.136719 683.265625 460.457031 L 686.144531 462.21875 L 689.027344 463.980469 L 694.792969 467.183594 C 695.273438 467.503906 695.753906 467.660156 696.230469 467.980469 L 697.671875 468.78125 L 703.597656 471.664062 L 709.679688 474.226562 L 712.882812 475.507812 L 716.085938 476.628906 L 719.285156 477.75 L 727.292969 480.152344 L 728.890625 480.632812 L 735.296875 482.234375 L 738.976562 483.035156 C 741.539062 488.960938 743.78125 495.046875 745.863281 501.128906 L 746.664062 503.851562 L 747.304688 506.574219 C 747.464844 507.054688 747.625 507.535156 747.625 508.015625 L 747.945312 509.457031 C 748.105469 510.417969 748.425781 511.378906 748.582031 512.179688 L 749.0625 515.0625 C 749.222656 516.023438 749.222656 516.984375 749.382812 517.945312 C 749.382812 518.425781 749.542969 518.90625 749.542969 519.386719 L 749.542969 520.828125 C 749.542969 521.789062 749.703125 522.75 749.703125 523.710938 C 749.863281 527.394531 749.542969 531.234375 748.902344 534.917969 C 748.425781 538.601562 747.464844 542.285156 746.34375 545.808594 C 745.0625 549.332031 743.621094 552.695312 741.859375 555.898438 C 740.097656 559.097656 738.019531 562.140625 735.617188 565.183594 C 721.367188 582.800781 699.914062 593.207031 677.019531 593.527344 C 669.496094 593.6875 661.972656 592.726562 654.765625 590.324219 C 651.085938 589.042969 647.722656 587.605469 644.359375 585.683594 C 642.761719 584.722656 641.160156 583.761719 639.558594 582.640625 L 637.316406 580.878906 C 636.515625 580.238281 635.875 579.597656 635.074219 579.117188 C 634.273438 578.636719 633.632812 577.835938 632.992188 577.195312 L 632.035156 576.234375 L 631.074219 575.273438 L 630.113281 574.152344 C 629.792969 573.832031 629.472656 573.511719 629.152344 573.03125 L 627.390625 570.789062 C 624.988281 567.746094 622.90625 564.542969 620.988281 561.179688 C 619.226562 557.816406 617.625 554.296875 616.34375 550.613281 C 615.703125 548.851562 615.0625 546.929688 614.421875 545.167969 L 613.460938 542.445312 C 613.140625 541.484375 612.980469 540.523438 612.660156 539.722656 L 611.0625 534.117188 L 609.78125 528.511719 L 609.460938 527.070312 C 609.300781 526.59375 609.300781 526.113281 609.140625 525.632812 L 608.660156 522.75 C 608.339844 520.828125 607.859375 518.90625 607.539062 517.144531 C 607.21875 515.382812 606.898438 513.300781 606.738281 511.539062 L 606.097656 505.773438 C 605.457031 501.929688 605.296875 498.085938 604.976562 494.40625 L 604.65625 488.640625 C 604.65625 487.679688 604.496094 486.71875 604.496094 485.757812 L 604.496094 477.109375 C 604.496094 475.1875 604.65625 473.265625 604.65625 471.34375 C 605.136719 463.660156 605.9375 455.972656 607.21875 448.445312 C 608.179688 443.480469 609.300781 438.675781 610.421875 433.875 C 611.378906 430.671875 612.339844 427.46875 612.980469 424.105469 C 613.621094 424.425781 614.261719 424.746094 614.902344 424.90625 C 618.90625 426.507812 623.386719 427.308594 627.710938 426.988281 C 632.035156 426.667969 636.195312 425.386719 639.878906 423.144531 C 641.640625 422.023438 643.398438 420.742188 645 419.460938 C 646.601562 418.019531 647.882812 416.578125 649.164062 414.816406 C 651.726562 411.613281 653.644531 407.929688 655.085938 404.089844 C 656.527344 400.246094 657.167969 396.242188 657.328125 392.078125 C 657.488281 387.914062 656.847656 383.589844 655.40625 379.746094 C 654.285156 376.703125 652.6875 373.824219 650.605469 371.261719 L 653.488281 369.660156 C 655.246094 368.699219 657.007812 367.578125 658.769531 366.457031 C 660.53125 365.335938 662.132812 364.214844 663.734375 362.933594 C 664.53125 362.292969 665.332031 361.652344 666.132812 361.011719 C 666.933594 360.371094 667.734375 359.730469 668.535156 359.089844 C 674.9375 353.804688 680.703125 347.878906 685.664062 341.316406 C 690.789062 334.75 694.792969 327.222656 697.511719 319.375 C 698.792969 315.371094 699.753906 311.371094 700.234375 307.207031 C 700.394531 305.125 700.554688 303.042969 700.554688 300.960938 C 700.554688 298.878906 700.234375 296.796875 699.753906 294.875 C 699.273438 298.878906 698.472656 302.722656 697.191406 306.566406 C 695.910156 310.25 694.472656 313.933594 692.710938 317.453125 C 689.1875 324.5 685.1875 331.066406 680.382812 337.3125 C 675.578125 343.558594 670.457031 349.640625 665.011719 355.246094 C 660.210938 360.371094 655.085938 365.335938 649.964844 370.621094 C 649.484375 369.980469 648.84375 369.339844 648.363281 368.859375 C 645.160156 365.816406 641.320312 363.414062 637.15625 361.8125 L 636.355469 361.492188 C 637.15625 352.042969 638.117188 342.757812 639.398438 333.46875 C 640.839844 323.378906 642.761719 313.292969 645.480469 303.523438 C 648.042969 293.753906 651.886719 284.464844 656.847656 275.660156 C 658.128906 273.417969 659.410156 271.335938 660.851562 269.253906 C 662.292969 267.171875 663.894531 265.25 665.492188 263.167969 C 667.09375 261.085938 668.855469 259.324219 670.777344 257.5625 C 672.699219 255.800781 674.617188 254.039062 676.699219 252.28125 C 674.140625 253.082031 671.738281 254.199219 669.335938 255.480469 C 666.933594 256.761719 664.691406 258.203125 662.453125 259.804688 C 660.210938 261.40625 658.289062 263.328125 656.207031 265.25 C 655.726562 265.730469 655.246094 266.210938 654.765625 266.691406 C 654.285156 267.171875 653.804688 267.652344 653.328125 268.292969 C 652.847656 268.933594 652.367188 269.253906 652.046875 269.894531 C 651.726562 270.535156 651.246094 271.015625 650.765625 271.496094 C 649.003906 273.738281 647.5625 275.980469 646.121094 278.222656 C 644.679688 280.625 643.398438 283.027344 642.28125 285.425781 C 641.160156 287.828125 640.039062 290.390625 639.078125 292.953125 C 638.117188 295.515625 637.316406 298.078125 636.515625 300.800781 C 633.632812 311.210938 632.195312 321.9375 632.035156 332.828125 C 632.035156 338.113281 632.195312 343.558594 632.832031 348.839844 C 633.152344 351.402344 633.472656 354.125 633.953125 356.6875 C 634.273438 358.128906 634.59375 359.570312 634.753906 360.851562 C 631.234375 359.730469 627.390625 359.410156 623.707031 359.570312 C 619.386719 359.890625 615.0625 361.011719 611.0625 363.09375 C 610.261719 363.574219 609.460938 363.894531 608.820312 364.375 C 605.457031 355.40625 602.734375 346.117188 600.816406 336.671875 C 600.335938 334.269531 600.015625 331.707031 599.535156 329.304688 C 599.054688 326.902344 598.894531 324.339844 598.574219 321.9375 L 598.414062 320.976562 L 598.414062 320.015625 L 598.253906 318.09375 L 597.933594 314.410156 C 597.773438 313.132812 597.773438 311.851562 597.773438 310.730469 L 597.613281 307.046875 C 597.613281 306.40625 597.613281 305.765625 597.613281 305.125 L 597.613281 297.757812 C 597.613281 297.117188 597.613281 296.476562 597.773438 295.835938 L 597.933594 292.152344 L 598.09375 290.230469 L 598.09375 289.269531 L 598.253906 288.308594 L 598.574219 284.628906 C 598.734375 283.347656 598.734375 282.066406 598.894531 280.945312 L 599.375 277.261719 C 600.816406 267.492188 603.054688 257.722656 605.9375 248.277344 L 608.339844 241.230469 L 609.621094 237.707031 L 611.0625 234.34375 C 612.980469 229.859375 615.222656 225.535156 617.945312 221.535156 C 623.226562 213.527344 630.273438 206.800781 638.597656 201.835938 C 642.761719 199.433594 647.082031 197.511719 651.726562 196.070312 C 656.367188 194.789062 661.171875 193.828125 665.972656 193.507812 C 675.738281 192.710938 685.664062 193.988281 695.113281 196.871094 C 699.914062 198.3125 704.398438 200.394531 708.71875 202.796875 C 710.960938 203.917969 713.042969 205.359375 715.125 206.640625 C 716.085938 207.28125 717.046875 208.082031 718.164062 208.882812 L 719.605469 210.003906 C 720.085938 210.324219 720.566406 210.804688 721.046875 211.285156 C 724.890625 214.488281 728.25 218.332031 731.132812 222.335938 C 731.453125 222.816406 731.773438 223.296875 732.253906 223.933594 C 732.734375 224.574219 733.054688 224.894531 733.214844 225.535156 L 734.175781 227.136719 C 734.496094 227.617188 734.816406 228.257812 735.136719 228.738281 C 735.777344 229.859375 736.257812 230.980469 736.738281 232.101562 L 737.539062 233.863281 C 737.699219 234.503906 738.019531 234.984375 738.179688 235.625 C 739.9375 240.269531 741.21875 245.074219 741.859375 250.039062 C 742.5 255 742.5 259.964844 741.859375 264.769531 C 741.21875 269.734375 740.257812 274.539062 738.65625 279.183594 C 738.335938 280.304688 737.859375 281.585938 737.539062 282.707031 C 737.21875 283.828125 736.738281 285.105469 736.257812 286.226562 C 735.296875 288.46875 734.335938 290.871094 733.375 293.113281 C 729.371094 302.242188 724.890625 311.050781 719.765625 319.535156 C 714.644531 328.023438 708.71875 336.191406 702.316406 343.71875 L 699.914062 346.4375 C 699.113281 347.398438 698.3125 348.359375 697.351562 349.160156 L 694.792969 351.882812 L 693.511719 353.324219 C 693.03125 353.804688 692.710938 354.285156 692.230469 354.605469 C 690.46875 356.367188 688.546875 357.96875 686.785156 359.730469 C 685.027344 361.492188 682.945312 363.09375 681.183594 364.695312 C 673.339844 371.101562 665.011719 377.023438 656.207031 381.988281 L 656.527344 383.109375 C 665.972656 378.945312 675.101562 373.824219 683.425781 367.578125 C 685.507812 366.136719 687.425781 364.535156 689.507812 362.933594 C 689.988281 362.613281 690.46875 362.132812 690.949219 361.652344 L 695.273438 357.808594 C 695.753906 357.488281 696.230469 357.007812 696.710938 356.527344 L 698.152344 355.246094 L 699.433594 354.125 C 699.433594 354.125 712.082031 344.199219 723.609375 343.078125 C 727.453125 342.757812 731.132812 342.4375 734.976562 342.277344 C 743.621094 341.957031 752.265625 342.277344 760.75 343.078125 C 762.832031 343.238281 765.074219 343.558594 767.15625 343.71875 L 770.355469 344.199219 L 773.558594 344.679688 C 777.722656 345.320312 781.882812 346.277344 785.886719 347.558594 C 793.890625 349.960938 801.417969 353.804688 808.140625 358.929688 C 814.863281 364.054688 820.46875 370.460938 824.789062 377.664062 C 829.113281 385.03125 831.835938 393.359375 832.957031 401.847656 C 835.515625 418.980469 831.355469 436.4375 821.75 450.847656 Z M 703.117188 218.492188 C 702.15625 218.332031 701.035156 218.011719 700.074219 217.691406 C 699.113281 217.371094 697.992188 217.050781 697.03125 216.890625 L 693.992188 216.25 L 692.390625 215.929688 L 689.1875 215.609375 L 688.386719 215.449219 L 687.585938 215.449219 L 684.546875 215.289062 C 684.066406 215.289062 683.585938 215.289062 683.105469 215.289062 L 680.222656 215.289062 C 679.742188 215.289062 679.261719 215.289062 678.621094 215.289062 C 674.617188 215.449219 670.617188 216.089844 666.773438 217.050781 L 665.332031 217.371094 L 664.53125 217.53125 L 663.894531 217.691406 L 661.011719 218.652344 L 658.289062 219.773438 L 655.726562 221.054688 C 655.246094 221.214844 654.765625 221.375 654.285156 221.695312 L 653.007812 222.335938 L 651.726562 222.976562 C 651.246094 223.136719 650.925781 223.453125 650.445312 223.773438 L 649.164062 224.574219 L 647.882812 225.214844 L 645.320312 226.816406 C 641.960938 229.058594 638.757812 231.621094 635.714844 234.183594 C 632.675781 236.90625 629.632812 239.628906 626.75 242.671875 C 623.867188 245.714844 621.148438 248.757812 618.425781 251.960938 C 620.027344 247.957031 622.105469 244.273438 624.507812 240.75 C 626.910156 237.226562 629.632812 233.863281 632.515625 230.820312 C 633.3125 230.019531 633.953125 229.21875 634.753906 228.578125 C 635.554688 227.9375 636.355469 227.136719 637.15625 226.335938 C 637.957031 225.535156 638.757812 224.894531 639.558594 224.253906 L 642.121094 222.335938 C 643.878906 221.054688 645.640625 219.773438 647.5625 218.652344 C 648.523438 218.011719 649.484375 217.53125 650.445312 217.050781 L 651.886719 216.25 C 652.367188 215.929688 652.847656 215.769531 653.328125 215.609375 L 654.765625 214.96875 L 656.367188 214.328125 L 659.410156 213.207031 L 662.613281 212.246094 L 663.414062 212.085938 L 664.210938 211.925781 L 667.414062 211.285156 L 670.617188 210.964844 L 671.417969 210.804688 L 672.21875 210.804688 L 675.417969 210.644531 C 676.539062 210.644531 677.660156 210.804688 678.621094 210.804688 C 679.261719 210.804688 679.742188 210.804688 680.222656 210.964844 L 683.425781 211.285156 C 683.90625 211.285156 684.546875 211.445312 685.027344 211.605469 L 688.226562 212.246094 L 689.828125 212.566406 L 693.03125 213.527344 L 694.632812 214.167969 C 695.59375 214.648438 696.550781 214.96875 697.511719 215.449219 C 698.472656 215.929688 699.433594 216.410156 700.394531 216.890625 C 701.195312 217.371094 702.15625 217.851562 703.117188 218.492188 Z M 780.761719 460.777344 C 782.203125 460.777344 783.644531 460.777344 785.085938 460.777344 C 783.644531 461.097656 782.363281 461.578125 780.921875 461.898438 L 778.84375 462.378906 C 778.203125 462.539062 777.402344 462.699219 776.761719 462.859375 L 772.597656 463.5 C 771.15625 463.660156 769.714844 463.820312 768.277344 463.980469 L 766.195312 464.140625 L 763.953125 464.300781 L 759.628906 464.460938 L 755.308594 464.460938 C 754.507812 464.460938 753.867188 464.460938 753.066406 464.460938 L 750.824219 464.300781 C 745.0625 463.980469 739.296875 463.339844 733.535156 462.21875 C 732.09375 461.898438 730.652344 461.578125 729.210938 461.257812 L 725.050781 460.136719 C 724.410156 459.976562 723.609375 459.816406 722.96875 459.496094 L 718.804688 458.214844 L 716.726562 457.574219 C 715.285156 457.09375 714.003906 456.613281 712.5625 456.132812 L 708.558594 454.53125 C 705.839844 453.410156 703.277344 452.289062 700.554688 451.007812 C 695.273438 448.605469 690.308594 445.722656 685.34375 442.679688 C 680.382812 439.636719 675.738281 436.277344 671.257812 432.753906 C 669.015625 430.992188 666.773438 429.070312 664.691406 427.148438 C 662.613281 425.226562 660.53125 423.144531 658.609375 421.0625 C 663.414062 424.105469 668.214844 427.148438 673.179688 429.871094 C 678.140625 432.59375 683.105469 435.316406 688.066406 437.714844 C 693.03125 440.117188 698.152344 442.519531 703.277344 444.761719 C 708.398438 447.003906 713.683594 448.925781 718.964844 450.6875 L 722.808594 451.96875 C 724.089844 452.289062 725.53125 452.769531 726.8125 453.089844 L 730.8125 454.210938 L 734.816406 455.171875 C 735.457031 455.332031 736.097656 455.492188 736.898438 455.652344 L 738.976562 456.132812 L 741.058594 456.613281 L 742.019531 456.773438 C 742.339844 456.773438 742.660156 456.933594 742.980469 456.933594 L 747.144531 457.734375 C 747.785156 457.894531 748.582031 457.894531 749.222656 458.054688 L 751.304688 458.375 C 754.027344 458.855469 756.910156 459.015625 759.628906 459.335938 L 765.875 459.816406 L 767.957031 459.816406 L 772.117188 459.976562 L 778.363281 459.976562 Z M 571.996094 453.730469 C 567.035156 463.980469 560.46875 473.585938 552.464844 481.753906 L 551.023438 483.355469 C 550.542969 483.835938 550.0625 484.476562 549.421875 484.957031 L 546.222656 487.839844 C 545.101562 488.800781 543.980469 489.761719 542.859375 490.5625 L 541.097656 491.84375 C 540.457031 492.324219 539.976562 492.804688 539.335938 493.125 C 534.535156 496.488281 529.570312 499.367188 524.289062 501.769531 C 508.277344 508.976562 490.1875 510.738281 473.058594 506.734375 C 470.335938 506.09375 467.453125 505.292969 464.890625 504.332031 C 462.171875 503.371094 459.609375 502.25 457.046875 500.808594 C 462.492188 502.410156 467.933594 503.371094 473.539062 503.851562 C 478.980469 504.492188 484.585938 504.492188 490.1875 504.171875 C 501.074219 503.53125 511.960938 500.808594 521.886719 496.328125 L 522.847656 496.007812 L 523.808594 495.527344 L 525.570312 494.566406 L 527.328125 493.605469 L 530.851562 491.683594 C 531.492188 491.363281 532.132812 491.042969 532.613281 490.722656 C 533.734375 489.921875 534.855469 489.28125 536.136719 488.480469 C 540.777344 485.4375 545.101562 482.074219 549.101562 478.230469 C 557.589844 471.023438 565.273438 462.699219 571.996094 453.730469 Z M 642.441406 446.84375 C 644.839844 447.964844 647.242188 449.40625 649.484375 450.847656 C 651.726562 452.289062 653.964844 453.890625 656.046875 455.492188 C 669.015625 465.582031 679.261719 478.710938 686.144531 493.605469 C 688.386719 498.566406 690.148438 503.851562 691.589844 509.136719 L 692.550781 513.140625 C 692.871094 514.421875 693.03125 515.863281 693.351562 517.144531 L 693.671875 519.226562 L 693.832031 521.308594 L 694.3125 525.3125 C 695.113281 536.039062 693.992188 546.929688 691.109375 557.5 C 691.75 546.929688 691.269531 536.359375 689.667969 525.953125 L 688.867188 522.109375 L 688.546875 520.1875 L 688.066406 518.265625 C 687.746094 516.984375 687.425781 515.703125 687.105469 514.421875 L 685.984375 510.738281 L 685.34375 508.816406 L 684.707031 507.054688 L 684.066406 505.292969 C 683.90625 504.652344 683.585938 504.011719 683.425781 503.53125 C 682.945312 502.25 682.464844 501.128906 681.984375 499.847656 L 680.382812 496.328125 C 676.058594 486.878906 670.617188 477.910156 664.050781 469.742188 C 660.851562 465.582031 657.328125 461.738281 653.644531 457.894531 C 650.445312 453.890625 646.601562 450.207031 642.441406 446.84375 Z M 224.585938 180.21875 C 224.105469 180.539062 223.625 180.699219 223.144531 181.019531 C 221.222656 182.140625 219.304688 183.101562 217.542969 184.382812 C 216.582031 185.023438 215.621094 185.503906 214.820312 186.144531 C 214.019531 186.785156 213.058594 187.425781 212.097656 187.90625 L 210.816406 188.867188 L 209.539062 189.828125 L 206.976562 191.75 L 204.574219 193.828125 C 204.253906 194.148438 203.773438 194.46875 203.292969 194.789062 L 202.171875 195.910156 C 198.972656 198.792969 196.089844 201.835938 193.367188 205.039062 C 187.925781 211.605469 183.441406 218.8125 179.917969 226.496094 C 178.160156 230.339844 176.71875 234.503906 175.4375 238.507812 C 174.15625 242.671875 173.195312 246.996094 172.394531 251.160156 C 172.074219 248.917969 172.074219 246.675781 172.074219 244.59375 C 172.074219 242.351562 172.394531 240.109375 172.554688 237.867188 C 173.195312 233.382812 174.15625 229.058594 175.597656 224.734375 C 178.480469 216.089844 182.960938 208.082031 188.886719 201.195312 L 190.003906 199.914062 C 190.324219 199.433594 190.804688 199.113281 191.125 198.632812 C 191.925781 197.832031 192.726562 197.03125 193.527344 196.230469 L 195.929688 193.828125 C 196.25 193.507812 196.730469 193.03125 197.210938 192.710938 L 199.773438 190.46875 C 200.25 190.148438 200.730469 189.828125 201.050781 189.507812 L 203.773438 187.585938 L 206.65625 185.824219 L 208.097656 184.863281 L 209.539062 184.0625 C 217.382812 179.738281 225.867188 176.695312 234.511719 175.09375 L 231.632812 176.535156 C 230.671875 177.015625 229.710938 177.496094 228.75 177.976562 L 225.867188 179.578125 Z M 269.894531 37.21875 C 267.332031 40.261719 265.089844 43.621094 263.171875 47.144531 L 261.890625 49.707031 L 260.609375 52.429688 L 259.488281 55.152344 C 259.488281 55.472656 259.328125 55.632812 259.167969 55.792969 L 259.007812 56.433594 L 258.527344 57.875 C 258.367188 58.355469 258.207031 58.835938 258.046875 59.316406 L 257.40625 62.199219 C 257.246094 62.679688 257.246094 63.160156 257.085938 63.640625 L 256.765625 65.082031 L 256.445312 66.683594 L 255.964844 69.726562 C 255.324219 73.726562 255.003906 77.730469 255.003906 81.894531 C 254.84375 86.058594 255.003906 90.0625 255.164062 94.226562 C 255.324219 98.390625 255.804688 102.550781 256.445312 106.714844 C 254.683594 102.871094 253.242188 98.871094 252.285156 94.707031 C 251.324219 90.542969 250.683594 86.378906 250.363281 82.054688 C 250.363281 80.933594 250.203125 79.972656 250.203125 78.851562 C 250.203125 77.730469 250.203125 76.769531 250.203125 75.648438 C 250.203125 74.527344 250.203125 73.566406 250.203125 72.445312 L 250.523438 69.246094 C 250.683594 67.164062 251.003906 64.921875 251.484375 62.839844 C 251.644531 61.71875 251.964844 60.757812 252.125 59.636719 L 252.445312 58.035156 C 252.605469 57.554688 252.765625 56.914062 252.921875 56.433594 L 253.402344 54.832031 L 253.722656 54.03125 C 253.882812 53.710938 253.882812 53.550781 254.042969 53.230469 L 255.324219 50.1875 L 256.765625 47.304688 C 256.925781 46.984375 257.085938 46.824219 257.085938 46.503906 L 257.566406 45.703125 L 258.367188 44.261719 C 258.6875 43.78125 258.847656 43.300781 259.167969 42.820312 L 260.128906 41.539062 L 261.089844 40.261719 L 262.050781 38.980469 L 264.128906 36.417969 C 264.929688 35.617188 265.730469 34.816406 266.371094 34.015625 C 266.691406 33.695312 267.171875 33.214844 267.492188 32.894531 L 270.054688 30.652344 C 270.535156 30.332031 270.855469 30.011719 271.335938 29.691406 L 273.898438 27.929688 L 274.535156 27.449219 L 275.175781 27.128906 L 278.058594 25.527344 L 278.699219 25.207031 L 279.5 24.886719 L 282.382812 23.605469 C 283.34375 23.125 284.304688 22.804688 285.421875 22.484375 C 286.382812 22.164062 287.34375 21.84375 288.464844 21.523438 C 287.503906 22.164062 286.703125 22.644531 285.742188 23.285156 C 284.78125 23.925781 283.984375 24.40625 283.183594 25.046875 L 280.78125 26.808594 L 279.5 27.769531 L 278.378906 28.730469 L 277.097656 29.691406 L 276.136719 30.652344 L 273.894531 32.734375 C 273.578125 33.054688 273.097656 33.375 272.777344 33.855469 L 271.65625 34.976562 L 270.695312 36.097656 C 270.375 36.417969 270.214844 36.738281 269.894531 37.21875 Z M 417.503906 190.46875 C 414.621094 190.789062 411.738281 190.949219 408.859375 191.109375 C 414.460938 189.828125 419.90625 188.226562 425.1875 186.625 C 430.472656 185.023438 435.914062 183.101562 441.199219 181.179688 C 446.480469 179.257812 451.605469 177.015625 456.726562 174.613281 C 461.851562 172.210938 466.8125 169.808594 471.617188 167.085938 L 473.378906 166.125 L 475.136719 165.003906 C 476.417969 164.363281 477.539062 163.5625 478.660156 162.925781 L 482.183594 160.683594 L 485.703125 158.28125 C 486.34375 157.960938 486.824219 157.480469 487.464844 157.160156 L 489.066406 155.878906 L 490.828125 154.597656 L 492.429688 153.316406 L 495.789062 150.753906 C 496.429688 150.273438 496.910156 149.792969 497.390625 149.472656 L 498.992188 148.191406 C 501.234375 146.429688 503.15625 144.507812 505.238281 142.746094 L 508.277344 139.863281 L 509.878906 138.421875 L 511.320312 136.820312 C 515.324219 132.816406 518.84375 128.496094 522.6875 124.171875 C 522.046875 125.453125 521.246094 126.734375 520.605469 127.855469 L 519.484375 129.777344 C 519.164062 130.417969 518.683594 131.058594 518.363281 131.539062 C 517.5625 132.816406 516.761719 133.9375 515.964844 135.21875 C 515.164062 136.5 514.203125 137.460938 513.402344 138.742188 L 512.121094 140.503906 L 510.679688 142.105469 L 507.796875 145.46875 L 504.917969 148.671875 C 504.4375 149.152344 503.957031 149.792969 503.476562 150.273438 L 501.875 151.714844 C 497.710938 155.71875 493.390625 159.5625 488.746094 162.921875 C 484.105469 166.285156 479.300781 169.488281 474.175781 172.210938 C 472.898438 172.851562 471.617188 173.652344 470.335938 174.292969 L 466.492188 176.214844 C 463.929688 177.496094 461.210938 178.617188 458.648438 179.738281 C 453.363281 181.980469 447.921875 183.902344 442.480469 185.503906 C 437.035156 187.105469 431.433594 188.386719 425.667969 189.507812 C 423.105469 189.667969 420.386719 190.148438 417.503906 190.46875 Z M 453.84375 50.988281 C 455.765625 50.1875 457.6875 49.546875 459.609375 49.066406 C 461.53125 48.585938 463.613281 48.265625 465.691406 47.945312 C 474.019531 46.984375 482.503906 48.105469 490.347656 51.148438 C 491.308594 51.46875 492.269531 51.949219 493.230469 52.429688 L 494.671875 53.070312 L 496.109375 53.871094 C 498.03125 54.832031 499.792969 55.953125 501.554688 57.074219 L 504.117188 58.996094 C 504.597656 59.316406 504.917969 59.636719 505.398438 59.957031 L 506.675781 60.917969 L 507.957031 61.878906 L 509.078125 63 C 509.878906 63.800781 510.519531 64.441406 511.320312 65.242188 C 512.761719 66.84375 514.203125 68.285156 515.324219 70.046875 C 515.964844 70.847656 516.601562 71.644531 517.242188 72.445312 L 519.003906 75.007812 C 523.488281 81.894531 526.847656 89.421875 528.929688 97.429688 C 527.808594 95.667969 526.691406 94.066406 525.730469 92.304688 C 524.769531 90.542969 523.488281 88.941406 522.527344 87.339844 L 520.765625 84.9375 L 519.964844 83.65625 L 519.003906 82.375 L 517.242188 79.972656 C 516.921875 79.652344 516.601562 79.171875 516.28125 78.851562 L 515.324219 77.730469 L 513.242188 75.488281 C 512.601562 74.6875 511.960938 74.046875 511.320312 73.40625 C 510.039062 71.964844 508.597656 70.527344 507.316406 69.246094 C 506.675781 68.605469 505.875 67.964844 505.238281 67.324219 L 501.875 64.441406 C 501.554688 64.121094 501.074219 63.800781 500.753906 63.640625 L 498.351562 62.039062 C 492.109375 57.714844 484.902344 54.511719 477.539062 52.75 C 469.695312 50.667969 461.691406 50.1875 453.84375 50.988281 Z M 382.121094 312.171875 C 382.121094 312.8125 382.28125 313.613281 382.28125 314.414062 L 382.28125 318.734375 C 382.28125 320.175781 382.121094 321.617188 382.121094 323.058594 L 381.960938 325.300781 C 381.960938 325.941406 381.800781 326.742188 381.800781 327.542969 C 381.160156 333.308594 379.878906 339.074219 378.121094 344.519531 C 372.675781 361.171875 361.789062 375.746094 347.382812 385.671875 C 344.980469 387.273438 342.578125 388.714844 340.015625 390.15625 C 337.453125 391.597656 334.894531 392.71875 332.171875 393.679688 C 336.976562 390.636719 341.457031 387.273438 345.621094 383.589844 C 349.78125 379.90625 353.625 375.90625 356.988281 371.582031 C 363.871094 363.09375 369.152344 353.324219 372.675781 342.917969 C 372.835938 342.597656 372.835938 342.277344 372.996094 341.957031 L 374.597656 337.152344 L 375.558594 333.308594 C 375.71875 332.667969 375.878906 332.027344 376.039062 331.226562 C 376.199219 329.945312 376.519531 328.503906 376.679688 327.222656 C 377.480469 321.777344 377.960938 316.171875 377.960938 310.730469 C 377.960938 299.519531 377 288.308594 374.917969 277.261719 C 379.238281 287.828125 381.800781 299.199219 382.601562 310.570312 Z M 448.402344 218.8125 C 443.117188 218.492188 437.835938 218.332031 432.710938 218.492188 C 427.429688 218.652344 422.144531 219.132812 416.863281 219.933594 C 419.425781 218.972656 421.984375 218.171875 424.546875 217.371094 C 427.109375 216.730469 429.832031 216.089844 432.390625 215.609375 C 448.5625 212.886719 465.210938 214.007812 480.742188 218.972656 C 486.023438 220.734375 490.988281 222.816406 495.789062 225.375 L 499.3125 227.296875 C 500.433594 227.9375 501.554688 228.738281 502.835938 229.539062 L 504.597656 230.660156 L 506.195312 231.78125 L 509.558594 234.183594 C 518.042969 240.910156 525.410156 248.917969 531.171875 258.042969 C 523.808594 250.519531 515.644531 243.792969 506.835938 237.867188 L 503.476562 235.785156 L 501.875 234.824219 L 500.113281 233.863281 C 498.992188 233.222656 497.871094 232.582031 496.75 231.941406 L 493.230469 230.179688 L 492.429688 229.699219 L 491.46875 229.378906 L 487.945312 227.777344 C 487.304688 227.457031 486.664062 227.296875 486.183594 227.136719 C 484.902344 226.65625 483.785156 226.175781 482.503906 225.695312 L 478.820312 224.414062 C 469.054688 221.375 458.648438 219.453125 448.402344 218.8125 Z M 448.402344 218.8125 " fill-opacity="1" fill-rule="nonzero"/></g><g transform="matrix(1, 0, 0, 1, 76, 135)"><g clip-path="url(#6e9172a56d)"><g fill="#553b2f" fill-opacity="1"><g transform="translate(0.026023, 206.973666)"><g><path d="M 119.25 -0.78125 C 117.8125 -0.394531 115.550781 -0.00390625 112.46875 0.390625 C 109.394531 0.785156 106.347656 0.984375 103.328125 0.984375 C 100.316406 0.984375 97.664062 0.753906 95.375 0.296875 C 93.082031 -0.160156 91.148438 -0.976562 89.578125 -2.15625 C 88.003906 -3.332031 86.828125 -4.96875 86.046875 -7.0625 C 85.265625 -9.164062 84.875 -11.921875 84.875 -15.328125 L 84.875 -45.96875 L 47.15625 -45.96875 L 47.15625 -0.78125 C 45.707031 -0.394531 43.441406 -0.00390625 40.359375 0.390625 C 37.285156 0.785156 34.242188 0.984375 31.234375 0.984375 C 28.222656 0.984375 25.570312 0.753906 23.28125 0.296875 C 20.988281 -0.160156 19.054688 -0.976562 17.484375 -2.15625 C 15.910156 -3.332031 14.726562 -4.96875 13.9375 -7.0625 C 13.15625 -9.164062 12.765625 -11.921875 12.765625 -15.328125 L 12.765625 -119.046875 C 14.210938 -119.304688 16.503906 -119.664062 19.640625 -120.125 C 22.785156 -120.582031 25.800781 -120.8125 28.6875 -120.8125 C 31.695312 -120.8125 34.347656 -120.582031 36.640625 -120.125 C 38.929688 -119.664062 40.863281 -118.847656 42.4375 -117.671875 C 44.007812 -116.492188 45.1875 -114.859375 45.96875 -112.765625 C 46.757812 -110.671875 47.15625 -107.921875 47.15625 -104.515625 L 47.15625 -73.078125 L 84.875 -73.078125 L 84.875 -119.046875 C 86.3125 -119.304688 88.597656 -119.664062 91.734375 -120.125 C 94.878906 -120.582031 97.894531 -120.8125 100.78125 -120.8125 C 103.789062 -120.8125 106.441406 -120.582031 108.734375 -120.125 C 111.023438 -119.664062 112.957031 -118.847656 114.53125 -117.671875 C 116.101562 -116.492188 117.28125 -114.859375 118.0625 -112.765625 C 118.851562 -110.671875 119.25 -107.921875 119.25 -104.515625 Z M 119.25 -0.78125 "/></g></g></g><g fill="#553b2f" fill-opacity="1"><g transform="translate(132.038986, 206.973666)"><g><path d="M 109.03125 -47.734375 C 109.03125 -39.617188 107.785156 -32.382812 105.296875 -26.03125 C 102.804688 -19.675781 99.300781 -14.335938 94.78125 -10.015625 C 90.269531 -5.691406 84.867188 -2.414062 78.578125 -0.1875 C 72.296875 2.03125 65.289062 3.140625 57.5625 3.140625 C 49.832031 3.140625 42.820312 1.960938 36.53125 -0.390625 C 30.25 -2.742188 24.847656 -6.113281 20.328125 -10.5 C 15.816406 -14.894531 12.316406 -20.234375 9.828125 -26.515625 C 7.335938 -32.804688 6.09375 -39.878906 6.09375 -47.734375 C 6.09375 -55.460938 7.335938 -62.46875 9.828125 -68.75 C 12.316406 -75.039062 15.816406 -80.378906 20.328125 -84.765625 C 24.847656 -89.148438 30.25 -92.519531 36.53125 -94.875 C 42.820312 -97.238281 49.832031 -98.421875 57.5625 -98.421875 C 65.289062 -98.421875 72.296875 -97.207031 78.578125 -94.78125 C 84.867188 -92.363281 90.269531 -88.957031 94.78125 -84.5625 C 99.300781 -80.175781 102.804688 -74.835938 105.296875 -68.546875 C 107.785156 -62.265625 109.03125 -55.328125 109.03125 -47.734375 Z M 40.265625 -47.734375 C 40.265625 -39.742188 41.800781 -33.617188 44.875 -29.359375 C 47.957031 -25.109375 52.25 -22.984375 57.75 -22.984375 C 63.257812 -22.984375 67.484375 -25.144531 70.421875 -29.46875 C 73.367188 -33.789062 74.84375 -39.878906 74.84375 -47.734375 C 74.84375 -55.597656 73.335938 -61.65625 70.328125 -65.90625 C 67.316406 -70.164062 63.0625 -72.296875 57.5625 -72.296875 C 52.0625 -72.296875 47.800781 -70.164062 44.78125 -65.90625 C 41.769531 -61.65625 40.265625 -55.597656 40.265625 -47.734375 Z M 40.265625 -47.734375 "/></g></g></g><g fill="#553b2f" fill-opacity="1"><g transform="translate(247.157417, 206.973666)"><g><path d="M 70.71875 -60.5 C 70.71875 -64.5625 69.570312 -67.539062 67.28125 -69.4375 C 64.988281 -71.34375 61.878906 -72.296875 57.953125 -72.296875 C 55.335938 -72.296875 52.75 -71.96875 50.1875 -71.3125 C 47.632812 -70.65625 45.441406 -69.671875 43.609375 -68.359375 L 43.609375 -0.203125 C 42.296875 0.191406 40.234375 0.585938 37.421875 0.984375 C 34.609375 1.378906 31.695312 1.578125 28.6875 1.578125 C 25.800781 1.578125 23.210938 1.378906 20.921875 0.984375 C 18.628906 0.585938 16.695312 -0.195312 15.125 -1.375 C 13.550781 -2.550781 12.335938 -4.15625 11.484375 -6.1875 C 10.640625 -8.21875 10.21875 -10.867188 10.21875 -14.140625 L 10.21875 -73.078125 C 10.21875 -76.617188 10.96875 -79.5 12.46875 -81.71875 C 13.976562 -83.945312 16.039062 -85.976562 18.65625 -87.8125 C 23.113281 -90.957031 28.710938 -93.507812 35.453125 -95.46875 C 42.203125 -97.4375 49.703125 -98.421875 57.953125 -98.421875 C 72.753906 -98.421875 84.148438 -95.175781 92.140625 -88.6875 C 100.128906 -82.207031 104.125 -73.207031 104.125 -61.6875 L 104.125 -0.203125 C 102.8125 0.191406 100.742188 0.585938 97.921875 0.984375 C 95.109375 1.378906 92.195312 1.578125 89.1875 1.578125 C 86.3125 1.578125 83.722656 1.378906 81.421875 0.984375 C 79.128906 0.585938 77.195312 -0.195312 75.625 -1.375 C 74.0625 -2.550781 72.851562 -4.15625 72 -6.1875 C 71.144531 -8.21875 70.71875 -10.867188 70.71875 -14.140625 Z M 70.71875 -60.5 "/></g></g></g><g fill="#553b2f" fill-opacity="1"><g transform="translate(361.686533, 206.973666)"><g><path d="M 56.78125 -98.421875 C 64.238281 -98.421875 71.015625 -97.46875 77.109375 -95.5625 C 83.203125 -93.664062 88.34375 -91.210938 92.53125 -88.203125 C 95.144531 -86.367188 97.207031 -84.335938 98.71875 -82.109375 C 100.226562 -79.890625 100.984375 -77.007812 100.984375 -73.46875 L 100.984375 -4.71875 C 100.984375 2.226562 99.671875 8.222656 97.046875 13.265625 C 94.429688 18.304688 90.863281 22.492188 86.34375 25.828125 C 81.820312 29.171875 76.515625 31.628906 70.421875 33.203125 C 64.335938 34.773438 57.820312 35.5625 50.875 35.5625 C 38.957031 35.5625 29.59375 33.957031 22.78125 30.75 C 15.976562 27.539062 12.578125 22.332031 12.578125 15.125 C 12.578125 12.113281 13.195312 9.460938 14.4375 7.171875 C 15.6875 4.878906 17.09375 3.144531 18.65625 1.96875 C 22.457031 4.0625 26.75 5.828125 31.53125 7.265625 C 36.3125 8.710938 41.253906 9.4375 46.359375 9.4375 C 53.429688 9.4375 59.0625 8.253906 63.25 5.890625 C 67.445312 3.535156 69.546875 -0.257812 69.546875 -5.5 L 69.546875 -8.640625 C 64.171875 -6.285156 57.625 -5.109375 49.90625 -5.109375 C 44.007812 -5.109375 38.40625 -5.988281 33.09375 -7.75 C 27.789062 -9.519531 23.140625 -12.269531 19.140625 -16 C 15.148438 -19.738281 11.941406 -24.554688 9.515625 -30.453125 C 7.097656 -36.347656 5.890625 -43.351562 5.890625 -51.46875 C 5.890625 -59.457031 7.164062 -66.398438 9.71875 -72.296875 C 12.28125 -78.191406 15.816406 -83.066406 20.328125 -86.921875 C 24.847656 -90.785156 30.21875 -93.664062 36.4375 -95.5625 C 42.664062 -97.46875 49.445312 -98.421875 56.78125 -98.421875 Z M 68.953125 -69.9375 C 68.035156 -70.457031 66.691406 -70.976562 64.921875 -71.5 C 63.160156 -72.03125 60.96875 -72.296875 58.34375 -72.296875 C 51.925781 -72.296875 47.113281 -70.492188 43.90625 -66.890625 C 40.695312 -63.285156 39.09375 -58.144531 39.09375 -51.46875 C 39.09375 -43.875 40.695312 -38.40625 43.90625 -35.0625 C 47.113281 -31.726562 51.207031 -30.0625 56.1875 -30.0625 C 61.550781 -30.0625 65.804688 -31.304688 68.953125 -33.796875 Z M 68.953125 -69.9375 "/></g></g></g><g fill="#553b2f" fill-opacity="1"><g transform="translate(473.072448, 206.973666)"><g/></g></g><g fill="#553b2f" fill-opacity="1"><g transform="translate(512.362023, 206.973666)"><g><path d="M 46.5625 -47.34375 C 40.800781 -49.3125 35.5625 -51.304688 30.84375 -53.328125 C 26.125 -55.359375 22.0625 -57.816406 18.65625 -60.703125 C 15.257812 -63.585938 12.609375 -67.023438 10.703125 -71.015625 C 8.804688 -75.015625 7.859375 -79.894531 7.859375 -85.65625 C 7.859375 -96.789062 12.144531 -105.695312 20.71875 -112.375 C 29.300781 -119.050781 41.320312 -122.390625 56.78125 -122.390625 C 62.40625 -122.390625 67.640625 -121.992188 72.484375 -121.203125 C 77.335938 -120.421875 81.5 -119.210938 84.96875 -117.578125 C 88.4375 -115.941406 91.148438 -113.84375 93.109375 -111.28125 C 95.078125 -108.726562 96.0625 -105.753906 96.0625 -102.359375 C 96.0625 -98.953125 95.273438 -96.035156 93.703125 -93.609375 C 92.128906 -91.179688 90.234375 -89.117188 88.015625 -87.421875 C 85.128906 -89.253906 81.265625 -90.859375 76.421875 -92.234375 C 71.578125 -93.609375 66.269531 -94.296875 60.5 -94.296875 C 54.613281 -94.296875 50.296875 -93.476562 47.546875 -91.84375 C 44.796875 -90.207031 43.421875 -88.144531 43.421875 -85.65625 C 43.421875 -83.6875 44.269531 -82.078125 45.96875 -80.828125 C 47.675781 -79.585938 50.226562 -78.445312 53.625 -77.40625 L 64.046875 -74.0625 C 76.359375 -70.132812 85.820312 -65.125 92.4375 -59.03125 C 99.050781 -52.945312 102.359375 -44.664062 102.359375 -34.1875 C 102.359375 -23.050781 97.96875 -14.046875 89.1875 -7.171875 C 80.414062 -0.296875 67.515625 3.140625 50.484375 3.140625 C 44.460938 3.140625 38.863281 2.648438 33.6875 1.671875 C 28.519531 0.691406 24.003906 -0.742188 20.140625 -2.640625 C 16.273438 -4.546875 13.257812 -6.90625 11.09375 -9.71875 C 8.9375 -12.539062 7.859375 -15.785156 7.859375 -19.453125 C 7.859375 -23.242188 8.96875 -26.484375 11.1875 -29.171875 C 13.414062 -31.859375 15.84375 -33.921875 18.46875 -35.359375 C 22.132812 -32.484375 26.617188 -29.992188 31.921875 -27.890625 C 37.222656 -25.796875 43.019531 -24.75 49.3125 -24.75 C 55.726562 -24.75 60.242188 -25.726562 62.859375 -27.6875 C 65.484375 -29.65625 66.796875 -31.953125 66.796875 -34.578125 C 66.796875 -37.191406 65.742188 -39.1875 63.640625 -40.5625 C 61.546875 -41.9375 58.601562 -43.28125 54.8125 -44.59375 Z M 46.5625 -47.34375 "/></g></g></g><g fill="#553b2f" fill-opacity="1"><g transform="translate(620.015461, 206.973666)"><g><path d="M 54.03125 -98.421875 C 61.882812 -98.421875 69.179688 -97.40625 75.921875 -95.375 C 82.671875 -93.34375 88.46875 -90.234375 93.3125 -86.046875 C 98.15625 -81.859375 101.953125 -76.585938 104.703125 -70.234375 C 107.453125 -63.878906 108.828125 -56.316406 108.828125 -47.546875 C 108.828125 -39.160156 107.648438 -31.820312 105.296875 -25.53125 C 102.941406 -19.25 99.601562 -13.976562 95.28125 -9.71875 C 90.957031 -5.46875 85.75 -2.289062 79.65625 -0.1875 C 73.570312 1.90625 66.796875 2.953125 59.328125 2.953125 C 53.691406 2.953125 48.453125 2.097656 43.609375 0.390625 L 43.609375 33 C 42.296875 33.394531 40.195312 33.820312 37.3125 34.28125 C 34.4375 34.738281 31.492188 34.96875 28.484375 34.96875 C 25.597656 34.96875 23.007812 34.769531 20.71875 34.375 C 18.425781 33.988281 16.492188 33.203125 14.921875 32.015625 C 13.359375 30.835938 12.179688 29.234375 11.390625 27.203125 C 10.609375 25.171875 10.21875 22.519531 10.21875 19.25 L 10.21875 -75.046875 C 10.21875 -78.578125 10.96875 -81.457031 12.46875 -83.6875 C 13.976562 -85.914062 16.039062 -87.945312 18.65625 -89.78125 C 22.71875 -92.394531 27.757812 -94.488281 33.78125 -96.0625 C 39.8125 -97.632812 46.5625 -98.421875 54.03125 -98.421875 Z M 54.421875 -23.375 C 67.910156 -23.375 74.65625 -31.429688 74.65625 -47.546875 C 74.65625 -55.921875 72.984375 -62.140625 69.640625 -66.203125 C 66.304688 -70.265625 61.492188 -72.296875 55.203125 -72.296875 C 52.710938 -72.296875 50.484375 -72 48.515625 -71.40625 C 46.554688 -70.820312 44.859375 -70.132812 43.421875 -69.34375 L 43.421875 -26.125 C 44.992188 -25.34375 46.695312 -24.6875 48.53125 -24.15625 C 50.363281 -23.632812 52.328125 -23.375 54.421875 -23.375 Z M 54.421875 -23.375 "/></g></g></g><g fill="#553b2f" fill-opacity="1"><g transform="translate(735.330365, 206.973666)"><g><path d="M 51.078125 -21.21875 C 53.304688 -21.21875 55.757812 -21.445312 58.4375 -21.90625 C 61.125 -22.363281 63.125 -22.984375 64.4375 -23.765625 L 64.4375 -39.484375 L 50.296875 -38.3125 C 46.628906 -38.050781 43.613281 -37.265625 41.25 -35.953125 C 38.894531 -34.640625 37.71875 -32.675781 37.71875 -30.0625 C 37.71875 -27.4375 38.734375 -25.304688 40.765625 -23.671875 C 42.796875 -22.035156 46.234375 -21.21875 51.078125 -21.21875 Z M 49.5 -98.421875 C 56.570312 -98.421875 63.019531 -97.695312 68.84375 -96.25 C 74.675781 -94.8125 79.65625 -92.617188 83.78125 -89.671875 C 87.90625 -86.734375 91.082031 -83.003906 93.3125 -78.484375 C 95.539062 -73.960938 96.65625 -68.625 96.65625 -62.46875 L 96.65625 -18.46875 C 96.65625 -15.0625 95.703125 -12.273438 93.796875 -10.109375 C 91.898438 -7.953125 89.644531 -6.085938 87.03125 -4.515625 C 78.519531 0.585938 66.535156 3.140625 51.078125 3.140625 C 44.140625 3.140625 37.882812 2.484375 32.3125 1.171875 C 26.75 -0.128906 21.96875 -2.085938 17.96875 -4.703125 C 13.976562 -7.328125 10.898438 -10.671875 8.734375 -14.734375 C 6.578125 -18.796875 5.5 -23.507812 5.5 -28.875 C 5.5 -37.914062 8.179688 -44.859375 13.546875 -49.703125 C 18.921875 -54.546875 27.238281 -57.554688 38.5 -58.734375 L 64.234375 -61.484375 L 64.234375 -62.859375 C 64.234375 -66.660156 62.5625 -69.378906 59.21875 -71.015625 C 55.882812 -72.648438 51.078125 -73.46875 44.796875 -73.46875 C 39.816406 -73.46875 34.96875 -72.941406 30.25 -71.890625 C 25.539062 -70.847656 21.285156 -69.539062 17.484375 -67.96875 C 15.785156 -69.144531 14.34375 -70.945312 13.15625 -73.375 C 11.976562 -75.800781 11.390625 -78.320312 11.390625 -80.9375 C 11.390625 -84.34375 12.207031 -87.0625 13.84375 -89.09375 C 15.488281 -91.125 18.007812 -92.859375 21.40625 -94.296875 C 25.207031 -95.734375 29.691406 -96.78125 34.859375 -97.4375 C 40.035156 -98.09375 44.914062 -98.421875 49.5 -98.421875 Z M 49.5 -98.421875 "/></g></g></g></g></g></svg>